<svg width="16" height="14" viewBox="0 0 16 14" fill="none" xmlns="http://www.w3.org/2000/svg">
<path d="M16 2.70634H0V13.1813H16V2.70634ZM7.99997 11.3122C6.13973 11.3122 4.63158 9.80414 4.63158 7.94377C4.63158 6.08354 6.13966 4.57538 7.99997 4.57538C9.86027 4.57538 11.3685 6.08354 11.3685 7.94377C11.3685 9.80414 9.86027 11.3122 7.99997 11.3122ZM6.10789 0H9.89211L11.1369 2.00703H4.86322L6.10789 0ZM10.0211 7.94377C10.0211 9.05995 9.11622 9.96489 7.99997 9.96489C6.88385 9.96489 5.97899 9.05995 5.97899 7.94377C5.97899 6.82759 6.88385 5.92272 7.99997 5.92272C9.11622 5.92279 10.0211 6.82759 10.0211 7.94377Z" fill="#5C6D89"/>
</svg>
