<svg width="16" height="16" viewBox="0 0 16 16" fill="none" xmlns="http://www.w3.org/2000/svg">
<path d="M15.7646 5.72929L10.2716 0.236299C9.95655 -0.0787663 9.44568 -0.0787663 9.13061 0.236299L7.81487 1.55204C7.50238 1.86452 7.50023 2.36938 7.80762 2.685L3.17878 4.67025L0.0391258 14.0299C0.0163929 14.0976 0.0037977 14.1671 0.000725692 14.2363C-0.00154759 14.2882 0.00152441 14.3401 0.00988027 14.3909C0.0265306 14.4927 0.0639476 14.5908 0.120657 14.6785C0.130119 14.6932 0.140072 14.7075 0.15064 14.7216C0.171652 14.7496 0.194815 14.7764 0.220006 14.8017C0.226395 14.8081 0.233277 14.8137 0.240527 14.8184C0.243046 14.8201 0.24581 14.8211 0.248391 14.8226C0.253306 14.8254 0.25816 14.8284 0.263259 14.8305C0.266393 14.8318 0.269772 14.8324 0.272967 14.8334C0.277759 14.835 0.282552 14.8368 0.287467 14.8377C0.291153 14.8385 0.294901 14.8465 0.298588 14.8468C0.303196 14.8473 0.307804 14.8562 0.312473 14.8562C0.312596 14.8562 0.312719 14.8562 0.312842 14.8562C0.317511 14.8562 0.322119 14.8474 0.326727 14.8469C0.330229 14.8465 0.333793 14.8426 0.337295 14.8419C0.342087 14.841 0.346757 14.8372 0.351426 14.8358C0.354744 14.8347 0.358123 14.8331 0.361379 14.8318C0.366602 14.8297 0.371456 14.8263 0.376432 14.8235C0.378951 14.8221 0.384665 14.8208 0.387123 14.8192C0.394311 14.8145 0.349153 14.8089 0.410593 14.8025V14.8024L5.05449 10.1553C5.06118 10.1486 5.06567 10.1416 5.07114 10.1341C5.09301 10.1043 5.10425 10.069 5.10573 10.0329C5.10646 10.0148 5.10413 9.99656 5.0994 9.97868C5.09706 9.96977 5.09381 9.96092 5.09006 9.95226C4.97873 9.69501 4.92706 9.41779 4.93566 9.14236C4.93578 9.13922 4.93615 9.13615 4.93621 9.13308C4.93916 9.05087 4.94776 8.96891 4.96147 8.88763C4.97246 8.82238 4.98733 8.75774 5.00521 8.69372C5.08871 8.39531 5.24643 8.1136 5.48082 7.87915C5.48487 7.87509 5.48917 7.87134 5.49329 7.86729C5.51209 7.84886 5.53095 7.83055 5.55031 7.81304C5.55842 7.80573 5.56684 7.79897 5.57501 7.79184C5.59067 7.77814 5.60628 7.76432 5.62232 7.75129C5.63165 7.74367 5.6413 7.73667 5.65076 7.72923C5.666 7.71725 5.68118 7.70509 5.69672 7.69372C5.70637 7.68666 5.71626 7.68014 5.72603 7.67332C5.74169 7.66226 5.7573 7.65102 5.77321 7.64051C5.78341 7.63375 5.79392 7.62761 5.80424 7.6211C5.82003 7.61114 5.83576 7.60088 5.85179 7.59148C5.86175 7.58559 5.87195 7.5803 5.88196 7.57465C5.89867 7.56519 5.91526 7.5556 5.93222 7.54669C5.94217 7.54147 5.95237 7.5368 5.96245 7.5317C5.97965 7.52304 5.99679 7.51425 6.01418 7.50621C6.02493 7.50123 6.03581 7.4968 6.04662 7.49207C6.06358 7.48458 6.08048 7.47696 6.09762 7.47002C6.1088 7.46547 6.12017 7.46154 6.13147 7.45724C6.14849 7.45072 6.16539 7.44403 6.18253 7.43801C6.19414 7.43395 6.20594 7.43045 6.21767 7.42664C6.23457 7.42111 6.2514 7.4154 6.26842 7.41036C6.28083 7.40667 6.29337 7.4036 6.30584 7.40022C6.32237 7.39574 6.33877 7.39094 6.35536 7.38689C6.3682 7.38375 6.38116 7.38124 6.39407 7.37835C6.41041 7.37472 6.42675 7.37085 6.44316 7.36766C6.45643 7.36508 6.46982 7.36311 6.48315 7.36084C6.49931 7.35807 6.51547 7.35506 6.53169 7.35267C6.54533 7.3507 6.55903 7.34929 6.57267 7.34763C6.58865 7.34566 6.60462 7.34345 6.62066 7.34191C6.6346 7.34056 6.64855 7.33983 6.6625 7.33878C6.67835 7.33761 6.69414 7.3362 6.70993 7.3354C6.72406 7.33473 6.73825 7.3346 6.75245 7.33423C6.76811 7.3338 6.78384 7.33313 6.79951 7.33313C6.81456 7.33313 6.82961 7.33368 6.84467 7.33399C6.85935 7.3343 6.87397 7.33436 6.8886 7.33503C6.90377 7.33571 6.91895 7.337 6.93406 7.3381C6.94856 7.33909 6.96306 7.33982 6.9775 7.34118C6.99286 7.34259 7.0081 7.34462 7.0234 7.34646C7.03765 7.34812 7.05197 7.34953 7.06616 7.3515C7.08164 7.35365 7.09706 7.35647 7.11255 7.35906C7.12649 7.36133 7.14044 7.36336 7.15433 7.366C7.1703 7.36901 7.18615 7.3727 7.202 7.37607C7.21527 7.3789 7.22855 7.38148 7.24176 7.38461C7.2581 7.38849 7.27426 7.39303 7.29048 7.39739C7.30313 7.40077 7.31585 7.40378 7.32851 7.40747C7.34497 7.41226 7.36132 7.41767 7.37772 7.42289C7.38995 7.42676 7.40218 7.43033 7.41434 7.43444C7.43111 7.44016 7.44764 7.44661 7.46429 7.45281C7.47584 7.45711 7.48752 7.46111 7.49901 7.46565C7.5159 7.47235 7.53261 7.47979 7.54939 7.48697C7.56038 7.4917 7.57151 7.49607 7.58244 7.50104C7.59891 7.50848 7.61513 7.51665 7.63141 7.52458C7.64241 7.52998 7.65359 7.53496 7.66453 7.54061C7.68075 7.54891 7.69666 7.55794 7.71269 7.56672C7.72345 7.57262 7.73426 7.57815 7.74495 7.5843C7.76129 7.5937 7.77727 7.60383 7.79337 7.61373C7.80338 7.61993 7.81358 7.62577 7.82353 7.63216C7.83945 7.64242 7.85499 7.65335 7.87066 7.66411C7.88049 7.67086 7.8905 7.67725 7.90021 7.6842C7.91502 7.69476 7.92939 7.70607 7.94396 7.71713C7.95422 7.72493 7.96472 7.73237 7.97486 7.74048C7.98856 7.75135 8.00189 7.76296 8.01541 7.77433C8.02598 7.78324 8.03679 7.79172 8.04717 7.80087C8.06444 7.81605 8.08127 7.83196 8.09811 7.84787C8.10437 7.85377 8.11083 7.8593 8.11703 7.86532C8.2283 7.97997 8.32218 8.10549 8.39861 8.23839C8.41391 8.26499 8.42847 8.29184 8.44236 8.319C8.53962 8.50897 8.60259 8.71215 8.63122 8.91914C8.64351 9.00786 8.64947 9.09726 8.64917 9.18659C8.64892 9.24619 8.64591 9.30573 8.64007 9.36508C8.63712 9.39475 8.6335 9.42437 8.6292 9.45386C8.62133 9.50756 8.61083 9.56095 8.59829 9.61391C8.58066 9.68844 8.55823 9.76198 8.53138 9.83423C8.51437 9.88001 8.496 9.92541 8.47529 9.97008C8.4579 10.0074 8.43879 10.0441 8.41883 10.0805C8.33588 10.2316 8.231 10.3737 8.10302 10.5017L8.10296 10.5017C8.0712 10.5335 8.03833 10.5633 8.00503 10.5922C7.99741 10.5989 7.98979 10.6054 7.98205 10.6119C7.94893 10.6398 7.9152 10.6665 7.88067 10.6916C7.87594 10.6951 7.87103 10.6983 7.86623 10.7016C7.83465 10.7242 7.80246 10.7455 7.7699 10.7658C7.76221 10.7706 7.75466 10.7754 7.74692 10.7801C7.71097 10.8017 7.67454 10.8221 7.63755 10.8411C7.63012 10.8449 7.62262 10.8484 7.61513 10.8522C7.5817 10.8688 7.54785 10.8844 7.51369 10.8989C7.50724 10.9016 7.50091 10.9046 7.49446 10.9072C7.45618 10.923 7.41747 10.9371 7.3784 10.9502C7.36949 10.9532 7.36052 10.9559 7.35155 10.9588C7.31395 10.9707 7.2761 10.9818 7.23801 10.9913C7.23518 10.992 7.23236 10.9929 7.22953 10.9935C7.18916 11.0034 7.14849 11.0115 7.10769 11.0187C7.09829 11.0203 7.08883 11.0219 7.07943 11.0234C7.03863 11.0299 6.99771 11.0355 6.95661 11.0393C6.95293 11.0396 6.9493 11.0398 6.94561 11.0401C6.90709 11.0434 6.86851 11.0453 6.82986 11.0463C6.82083 11.0466 6.8118 11.0469 6.80277 11.0469C6.76062 11.0474 6.71841 11.0468 6.67632 11.0444C6.67147 11.0442 6.66661 11.0436 6.66182 11.0433C6.62465 11.0409 6.58754 11.0373 6.55049 11.0327C6.53857 11.0313 6.52665 11.0296 6.51473 11.028C6.48094 11.0232 6.44721 11.0174 6.41366 11.0108C6.40531 11.0092 6.39689 11.0078 6.38854 11.0061C6.34768 10.9974 6.307 10.9873 6.2667 10.9759C6.25699 10.9732 6.24741 10.97 6.23776 10.9671C6.20594 10.9576 6.17436 10.9472 6.14296 10.936C6.13172 10.9319 6.12041 10.9279 6.10923 10.9237C6.06954 10.9086 6.03016 10.8927 5.99133 10.8748C5.98027 10.8697 5.96884 10.8662 5.95729 10.8634C5.95409 10.8626 5.95096 10.8621 5.9477 10.8615C5.93824 10.8597 5.92872 10.8587 5.91919 10.8584C5.91747 10.8583 5.91582 10.8578 5.9141 10.8578C5.91342 10.8578 5.91274 10.858 5.91213 10.858C5.90138 10.8581 5.89069 10.8591 5.88012 10.8611C5.87785 10.8616 5.8757 10.8623 5.87342 10.8629C5.86513 10.8648 5.85696 10.8672 5.84897 10.8702C5.84565 10.8714 5.84252 10.8729 5.83926 10.8743C5.8322 10.8775 5.82531 10.8811 5.81862 10.8852C5.81579 10.8869 5.8129 10.8885 5.81014 10.8905C5.80105 10.8967 5.79232 10.9035 5.78433 10.9116L1.14892 15.5468C1.12987 15.5659 1.11801 15.5893 1.11322 15.6138C1.11163 15.622 1.11083 15.6304 1.11083 15.6387C1.11083 15.6636 1.11795 15.6886 1.13221 15.7101C1.13694 15.7173 1.14253 15.7242 1.14886 15.7305L1.19764 15.7793C1.21368 15.7953 1.23051 15.8102 1.24772 15.8246C1.25245 15.8285 1.25724 15.8323 1.26203 15.8361C1.27641 15.8476 1.29115 15.8584 1.30627 15.8688C1.30983 15.8712 1.31321 15.8737 1.31684 15.8761C1.33521 15.8882 1.35401 15.8993 1.37324 15.9097C1.37785 15.9121 1.38251 15.9144 1.38718 15.9167C1.40285 15.9247 1.4187 15.9322 1.43486 15.9391C1.44002 15.9413 1.44518 15.9436 1.45041 15.9457C1.47056 15.9538 1.49102 15.9612 1.51179 15.9674C1.51461 15.9683 1.5175 15.9689 1.52039 15.9698C1.5387 15.9751 1.55725 15.9797 1.57593 15.9835C1.58177 15.9848 1.58766 15.9859 1.59356 15.987C1.61267 15.9906 1.6319 15.9935 1.65119 15.9955C1.65377 15.9958 1.65629 15.9963 1.65881 15.9965C1.68044 15.9986 1.70219 15.9995 1.724 15.9997C1.72627 15.9997 1.72848 16 1.73076 16C1.7353 16 1.73991 15.9995 1.74452 15.9994C1.75638 15.9992 1.76817 15.9988 1.78003 15.998C1.78753 15.9975 1.79496 15.9969 1.80246 15.9963C1.81432 15.9951 1.82611 15.9936 1.83791 15.992C1.84516 15.9909 1.85241 15.9899 1.85966 15.9886C1.87232 15.9864 1.88491 15.9837 1.89751 15.9808C1.90377 15.9794 1.90998 15.9783 1.91625 15.9767C1.93474 15.972 1.95317 15.9666 1.97142 15.9605C1.9716 15.9604 1.97185 15.9604 1.97203 15.9603L11.3123 12.8035L13.2973 8.17517L13.3081 8.18598C13.6232 8.50104 14.1341 8.50104 14.4491 8.18598L15.7649 6.87024C16.0797 6.55523 16.0797 6.04436 15.7646 5.72929Z" fill="#5C6D89"/>
</svg>
