<svg xmlns="http://www.w3.org/2000/svg" width="26" height="24" fill="none"><div xmlns="" id="in-page-channel-node-id" data-channel-name="in_page_channel_CUXlB_"/><path d="m23.839 13.601 2.134-9.389a1.083 1.083 0 0 0-1.057-1.323H7.186L6.773.866A1.083 1.083 0 0 0 5.71 0H1.083C.485 0 0 .485 0 1.083v.723c0 .598.485 1.083 1.083 1.083h3.155l3.17 15.502a2.526 2.526 0 0 0 1.259 4.72 2.528 2.528 0 0 0 1.768-4.333h9.463a2.528 2.528 0 1 0 2.87-.47l.25-1.096a1.083 1.083 0 0 0-1.056-1.323H9.845l-.295-1.444h13.232c.506 0 .945-.35 1.057-.844Z" fill="#fff"/></svg>