<svg xmlns="http://www.w3.org/2000/svg" width="25" height="25" viewBox="0 0 20 20" fill="none">
<rect width="20" height="20" rx="3" fill="#F5F6F7"></rect>
<path d="M10 3C8.61553 3 7.26215 3.41054 6.11101 4.17971C4.95987 4.94888 4.06266 6.04213 3.53285 7.32121C3.00303 8.6003 2.86441 10.0078 3.13451 11.3656C3.4046 12.7235 4.07129 13.9708 5.05026 14.9497C6.02922 15.9287 7.2765 16.5954 8.63437 16.8655C9.99224 17.1356 11.3997 16.997 12.6788 16.4672C13.9579 15.9373 15.0511 15.0401 15.8203 13.889C16.5895 12.7378 17 11.3845 17 10C16.9977 8.14418 16.2595 6.36502 14.9472 5.05275C13.635 3.74049 11.8558 3.00226 10 3ZM10 15.4444C8.92319 15.4444 7.87056 15.1251 6.97523 14.5269C6.0799 13.9286 5.38207 13.0783 4.96999 12.0835C4.55791 11.0887 4.4501 9.99396 4.66017 8.93784C4.87025 7.88172 5.38878 6.91161 6.1502 6.1502C6.91162 5.38878 7.88172 4.87024 8.93784 4.66017C9.99396 4.45009 11.0887 4.55791 12.0835 4.96999C13.0783 5.38207 13.9286 6.07989 14.5269 6.97523C15.1251 7.87056 15.4444 8.92319 15.4444 10C15.4428 11.4434 14.8687 12.8273 13.848 13.848C12.8273 14.8687 11.4435 15.4428 10 15.4444Z" fill="#A8A9AA"></path>
<path d="M12.3333 9.22222H10.7778V6.88889C10.7778 6.68261 10.6958 6.48478 10.55 6.33892C10.4041 6.19305 10.2063 6.11111 10 6.11111C9.79372 6.11111 9.59589 6.19305 9.45003 6.33892C9.30417 6.48478 9.22222 6.68261 9.22222 6.88889V10C9.22222 10.2063 9.30417 10.4041 9.45003 10.55C9.59589 10.6958 9.79372 10.7778 10 10.7778H12.3333C12.5396 10.7778 12.7374 10.6958 12.8833 10.55C13.0292 10.4041 13.1111 10.2063 13.1111 10C13.1111 9.79372 13.0292 9.59589 12.8833 9.45003C12.7374 9.30416 12.5396 9.22222 12.3333 9.22222Z" fill="#A8A9AA"></path>
</svg>