<svg width="16" height="16" viewBox="0 0 16 16" fill="none" xmlns="http://www.w3.org/2000/svg">
<path d="M15.8077 2.50206C15.8077 1.89792 15.3179 1.40813 14.7138 1.40813H12.864V0.446272C12.864 0.199861 12.6641 0 12.4177 0H11.4538C11.2084 0 11.007 0.199861 11.007 0.446272V1.40864H4.86446V0.446272C4.86446 0.199861 4.6646 0 4.41819 0H3.51856C3.27215 0 3.07229 0.199861 3.07229 0.446272V1.40864H1.09392C0.489786 1.40864 0 1.89843 0 2.50256V6.40061H0.576308V14.8752C0.576308 15.4971 1.07975 16 1.70109 16H14.0439C14.6657 16 15.1687 15.4971 15.1687 14.8752V6.4001H15.8098L15.8077 2.50206ZM13.376 13.0188C13.376 13.6406 12.8731 14.1436 12.2512 14.1436H3.55702C2.93568 14.1436 2.43223 13.6406 2.43223 13.0188V6.4001H13.3755V13.0188H13.376Z" fill="#5C6D89"/>
<path d="M5.76004 7.61546H3.96838V9.47189H5.76004V7.61546Z" fill="#5C6D89"/>
<path d="M8.83183 7.61546H7.04016V9.47189H8.83183V7.61546Z" fill="#5C6D89"/>
<path d="M11.9036 7.61546H10.1114V9.47189H11.9036V7.61546Z" fill="#5C6D89"/>
<path d="M5.76004 10.8795H3.96838V12.7354H5.76004V10.8795Z" fill="#5C6D89"/>
<path d="M8.83183 10.8795H7.04016V12.7354H8.83183V10.8795Z" fill="#5C6D89"/>
<path d="M11.9036 10.8795H10.1114V12.7354H11.9036V10.8795Z" fill="#5C6D89"/>
</svg>
