<svg width="12" height="9" viewBox="0 0 12 9" fill="none" xmlns="http://www.w3.org/2000/svg">
<path d="M5.89223 2.43208C4.98847 2.43208 4.25125 3.20359 4.25125 4.15389C4.25125 5.10175 4.98602 5.8757 5.89223 5.8757C6.796 5.8757 7.53322 5.10419 7.53322 4.15389C7.53322 3.20604 6.796 2.43208 5.89223 2.43208Z" fill="#262728"/>
<path d="M5.89223 6.87499C4.43739 6.87499 3.25196 5.65527 3.25196 4.15389C3.25196 2.65252 4.43739 1.4328 5.89223 1.4328C7.34708 1.4328 8.5325 2.65252 8.5325 4.15389C8.5325 5.65527 7.34708 6.87499 5.89223 6.87499ZM11.9247 3.88938C10.3621 1.38137 8.25574 0 6 0C3.74426 0 1.63792 1.38137 0.0753138 3.88938C-0.0251046 4.05103 -0.0251046 4.25676 0.0753138 4.41841C1.63792 6.92642 3.74426 8.30779 6 8.30779C8.25574 8.30779 10.3596 6.92642 11.9247 4.41841C12.0251 4.25676 12.0251 4.05103 11.9247 3.88938Z" fill="#262728"/>
</svg>
