<svg width="10" height="12" viewBox="0 0 10 12" fill="none" xmlns="http://www.w3.org/2000/svg">
<path d="M2.20548 0.591081C1.18602 1.17962 0.456722 2.13006 0.152073 3.26711C-0.152641 4.40415 0.00379701 5.59186 0.592332 6.61132C1.37733 7.97088 2.84103 8.81549 4.41239 8.81549C4.90854 8.81549 5.40083 8.73009 5.86753 8.56621L7.85004 12L9.26359 11.1839L7.28141 7.75065C7.95098 7.17779 8.43302 6.41799 8.66605 5.54838C8.97069 4.41133 8.81426 3.22369 8.22572 2.20417C7.44079 0.844607 5.97703 0 4.40573 0C3.63608 0 2.87524 0.204361 2.20548 0.591081ZM6.81217 3.02031C7.18276 3.66218 7.28122 4.41003 7.08939 5.12595C6.89757 5.84186 6.43837 6.44026 5.7965 6.81085C5.37459 7.05445 4.89594 7.18321 4.41239 7.18321C3.42238 7.18321 2.50027 6.65134 2.00595 5.79518C1.63536 5.1533 1.5369 4.40552 1.72879 3.68954C1.92062 2.97362 2.37981 2.37523 3.02169 2.00457C3.44353 1.76103 3.92218 1.63228 4.40573 1.63228C5.3958 1.63228 6.31785 2.16414 6.81217 3.02031Z" fill="white"/>
</svg>
