<svg width="26" height="24" viewBox="0 0 26 24" fill="none" xmlns="http://www.w3.org/2000/svg">
<path d="M23.8386 13.6012L25.9725 4.21232C26.1265 3.53442 25.6113 2.88889 24.9161 2.88889H7.18635L6.77261 0.866219C6.66951 0.362063 6.22589 3.8147e-06 5.71126 3.8147e-06H1.08321C0.484895 3.8147e-06 -0.00012207 0.485021 -0.00012207 1.08334V1.80556C-0.00012207 2.40388 0.484895 2.88889 1.08321 2.88889H4.23765L7.40857 18.3912C6.64997 18.8274 6.13877 19.6454 6.13877 20.5833C6.13877 21.9794 7.27049 23.1111 8.66655 23.1111C10.0626 23.1111 11.1943 21.9794 11.1943 20.5833C11.1943 19.8758 10.9033 19.2366 10.4349 18.7778H19.8981C19.4298 19.2366 19.1388 19.8758 19.1388 20.5833C19.1388 21.9794 20.2705 23.1111 21.6665 23.1111C23.0626 23.1111 24.1943 21.9794 24.1943 20.5833C24.1943 19.5825 23.6126 18.7177 22.7689 18.3081L23.0179 17.2123C23.172 16.5344 22.6567 15.8889 21.9615 15.8889H9.84544L9.55 14.4445H22.7822C23.2881 14.4445 23.7266 14.0944 23.8386 13.6012Z" fill="white"/>
</svg>
