<svg width="26" height="26" viewBox="0 0 26 26" fill="none" xmlns="http://www.w3.org/2000/svg">
<path d="M25.9166 11.5026C25.8614 11.3704 25.7823 11.2502 25.6816 11.1494L22.4326 7.90048C22.0091 7.47798 21.3244 7.47798 20.9008 7.90048C20.4773 8.32404 20.4773 9.00979 20.9008 9.43229L22.3016 10.833H16.25C15.651 10.833 15.1667 11.3184 15.1667 11.9164C15.1667 12.5143 15.651 12.9997 16.25 12.9997H22.3015L20.9008 14.4004C20.4772 14.824 20.4772 15.5097 20.9008 15.9322C21.112 16.1445 21.3893 16.2497 21.6667 16.2497C21.9441 16.2497 22.2214 16.1446 22.4326 15.9322L25.6816 12.6833C25.7823 12.5836 25.8614 12.4634 25.9166 12.3301C26.026 12.0659 26.026 11.7669 25.9166 11.5026Z" fill="white"/>
<path d="M18.4167 15.1667C17.8177 15.1667 17.3334 15.652 17.3334 16.25V21.6666H13.0001V4.3333C13.0001 3.85556 12.6859 3.43306 12.2277 3.29549L8.46524 2.16668H17.3334V7.58335C17.3334 8.18135 17.8177 8.66666 18.4167 8.66666C19.0158 8.66666 19.5 8.18135 19.5 7.58335V1.08336C19.5 0.485312 19.0158 -3.8147e-06 18.4167 -3.8147e-06H1.08344C1.04444 -3.8147e-06 1.00975 0.0162462 0.97187 0.0205626C0.920937 0.0259961 0.874371 0.0346289 0.825621 0.0465625C0.711871 0.0758124 0.608937 0.120246 0.512555 0.180879C0.488738 0.196062 0.459488 0.197129 0.436738 0.214445C0.428004 0.220996 0.424754 0.232929 0.416071 0.239429C0.298004 0.332562 0.199438 0.446312 0.127938 0.581745C0.112755 0.610995 0.109505 0.642429 0.0976219 0.672745C0.0629384 0.755061 0.0250556 0.835245 0.0120556 0.926244C0.00662206 0.958744 0.016372 0.989061 0.0153056 1.02049C0.0142392 1.04218 0.00012207 1.06168 0.00012207 1.08331V22.75C0.00012207 23.2667 0.365188 23.7109 0.871121 23.8116L11.7044 25.9783C11.7748 25.9935 11.8463 26 11.9167 26C12.1648 26 12.4085 25.9144 12.6035 25.7541C12.8538 25.5482 13 25.2416 13 24.9166V23.8333H18.4167C19.0158 23.8333 19.5 23.348 19.5 22.75V16.25C19.5 15.652 19.0158 15.1667 18.4167 15.1667Z" fill="white"/>
</svg>
