<svg width="13" height="16" viewBox="0 0 13 16" fill="none" xmlns="http://www.w3.org/2000/svg">
<path d="M9.77778 16H2.66667C2.19517 16 1.74299 15.8127 1.40959 15.4793C1.07619 15.1459 0.888889 14.6937 0.888889 14.2222V6.22222C0.888889 5.98647 0.982539 5.76038 1.14924 5.59368C1.31594 5.42698 1.54203 5.33333 1.77778 5.33333H10.6667C10.9024 5.33333 11.1285 5.42698 11.2952 5.59368C11.4619 5.76038 11.5556 5.98647 11.5556 6.22222V14.2222C11.5556 14.6937 11.3683 15.1459 11.0349 15.4793C10.7015 15.8127 10.2493 16 9.77778 16ZM12.4444 2.66667C12.4444 2.90241 12.3508 3.12851 12.1841 3.29521C12.0174 3.46191 11.7913 3.55556 11.5556 3.55556H0.888889C0.653141 3.55556 0.427048 3.46191 0.260349 3.29521C0.0936505 3.12851 0 2.90241 0 2.66667C0 2.43092 0.0936505 2.20483 0.260349 2.03813C0.427048 1.87143 0.653141 1.77778 0.888889 1.77778H3.55556V0.888889C3.55556 0.653141 3.64921 0.427049 3.81591 0.26035C3.9826 0.0936505 4.2087 0 4.44444 0H8C8.23575 0 8.46184 0.0936505 8.62854 0.26035C8.79524 0.427049 8.88889 0.653141 8.88889 0.888889V1.77778H11.5556C11.7913 1.77778 12.0174 1.87143 12.1841 2.03813C12.3508 2.20483 12.4444 2.43092 12.4444 2.66667Z" fill="#5C6D89"/>
</svg>
