<svg width="17" height="16" viewBox="0 0 17 16" fill="none" xmlns="http://www.w3.org/2000/svg">
<path d="M0.756594 14.5045C0.414469 14.8466 0.414468 15.4013 0.756594 15.7434C1.09872 16.0855 1.65341 16.0855 1.99554 15.7434L8.5 9.23895L15.0045 15.7434C15.3466 16.0855 15.9013 16.0855 16.2434 15.7434C16.5855 15.4013 16.5855 14.8466 16.2434 14.5045L9.73895 8L16.2434 1.49554C16.5855 1.15341 16.5855 0.598719 16.2434 0.256594C15.9013 -0.0855316 15.3466 -0.0855311 15.0045 0.256594L8.5 6.76105L1.99554 0.256594C1.65341 -0.0855307 1.09872 -0.085531 0.756594 0.256594C0.414468 0.59872 0.414469 1.15341 0.756594 1.49554L7.26106 8L0.756594 14.5045Z" fill="white"/>
</svg>
