<svg width="12" height="16" viewBox="0 0 12 16" fill="none" xmlns="http://www.w3.org/2000/svg">
<path d="M6.02612 7.00571C7.96082 7.00571 9.5298 5.43673 9.5298 3.50204C9.52816 1.56898 7.96082 0 6.02612 0C4.09143 0 2.52245 1.56898 2.52245 3.50204C2.52245 5.43673 4.09143 7.00571 6.02612 7.00571ZM11.8906 12.3608V11.6588C11.8906 9.46939 10.1159 7.69469 7.92653 7.69469H3.96408C1.77469 7.69469 0 9.46939 0 11.6588V15.2539C0 15.6653 0.334694 16 0.746122 16H11.1886C11.6016 16 11.9347 15.6653 11.9347 15.2539V12.4702C11.9347 12.382 11.9184 12.3527 11.8906 12.3608Z" fill="#5C6D89"/>
</svg>
