<svg width="13" height="16" viewBox="0 0 13 16" fill="none" xmlns="http://www.w3.org/2000/svg">
<path d="M10.1129 1.37246H7.10125V0H3.01161V1.37246H0V3.5395H10.1129V1.37246ZM4.09513 1.08352H6.01773V1.37246H4.09513V1.08352Z" fill="#FF4A4A"/>
<path d="M9.15059 7.74032L9.35502 4.62302H0.757887L1.4447 15.0971H5.56829C5.03155 14.3362 4.71585 13.4087 4.71585 12.4088C4.71585 9.91169 6.68403 7.86561 9.15059 7.74032Z" fill="#FF4A4A"/>
<path d="M9.39052 8.81773C7.41035 8.81773 5.79937 10.4287 5.79937 12.4088C5.79937 14.389 7.41035 16 9.39052 16C11.3707 16 12.9817 14.389 12.9817 12.4088C12.9817 10.4287 11.3707 8.81773 9.39052 8.81773ZM11.3472 13.5994L10.5811 14.3655L9.39052 13.175L8.19998 14.3655L7.43382 13.5994L8.62436 12.4088L7.43382 11.2183L8.19998 10.4522L9.39052 11.6427L10.5811 10.4522L11.3472 11.2183L10.1567 12.4088L11.3472 13.5994Z" fill="#FF4A4A"/>
</svg>
