<svg width="16" height="12" viewBox="0 0 16 12" fill="none" xmlns="http://www.w3.org/2000/svg">
<path d="M7.85631 3.70469C6.65129 3.70469 5.66833 4.73337 5.66833 6.00044C5.66833 7.26424 6.64803 8.29618 7.85631 8.29618C9.06133 8.29618 10.0443 7.26751 10.0443 6.00044C10.0443 4.73664 9.06133 3.70469 7.85631 3.70469Z" fill="#5C6D89"/>
<path d="M7.85631 9.62856C5.91652 9.62856 4.33595 8.00228 4.33595 6.00044C4.33595 3.9986 5.91652 2.37231 7.85631 2.37231C9.7961 2.37231 11.3767 3.9986 11.3767 6.00044C11.3767 8.00228 9.7961 9.62856 7.85631 9.62856ZM15.8996 5.64775C13.8161 2.30373 11.0077 0.461914 8 0.461914C4.99235 0.461914 2.1839 2.30373 0.100418 5.64775C-0.0334728 5.86328 -0.0334728 6.1376 0.100418 6.35313C2.1839 9.69714 4.99235 11.539 8 11.539C11.0077 11.539 13.8128 9.69714 15.8996 6.35313C16.0335 6.1376 16.0335 5.86328 15.8996 5.64775Z" fill="#5C6D89"/>
</svg>
