<svg width="16" height="16" viewBox="0 0 16 16" fill="none" xmlns="http://www.w3.org/2000/svg">
<path d="M3.2 1.6C3.2 0.716345 3.91634 0 4.8 0H11.2C12.0836 0 12.8 0.716345 12.8 1.6V5.33333H3.2V1.6Z" fill="#5C6D89"/>
<path d="M1.6 6.4C0.716345 6.4 0 7.11634 0 8V12.2667C0 13.1503 0.716345 13.8667 1.6 13.8667H2.13333V9.6H13.8667V13.8667H14.4C15.2836 13.8667 16 13.1503 16 12.2667V8C16 7.11634 15.2836 6.4 14.4 6.4H1.6Z" fill="#5C6D89"/>
<path d="M3.2 10.6667H12.8V16H3.2V10.6667Z" fill="#5C6D89"/>
</svg>
