<svg width="16" height="16" viewBox="0 0 16 16" fill="none" xmlns="http://www.w3.org/2000/svg">
<path opacity="0.5" d="M15.3223 9.69856C15.4361 9.17829 15.4966 8.63824 15.4966 8.084C15.4966 3.92843 12.1278 0.55952 7.97205 0.55952C7.53333 0.55952 7.10347 0.59744 6.68523 0.6696C6.01275 0.24592 5.21712 0 4.36368 0C1.95365 0 0 1.95387 0 4.36352C0 5.16907 0.219147 5.92299 0.599787 6.57072C0.5 7.05957 0.447573 7.56555 0.447573 8.08395C0.447573 12.2395 3.81637 15.6084 7.97205 15.6084C8.44277 15.6084 8.9032 15.5649 9.34987 15.4822C9.96416 15.8123 10.6666 16 11.4127 16C13.8228 16 15.7763 14.0463 15.7763 11.6365C15.7763 10.9401 15.6124 10.2825 15.3223 9.69856ZM11.8312 11.6799C11.4831 12.1725 10.9688 12.5628 10.3025 12.8398C9.64256 13.1141 8.85152 13.2532 7.95109 13.2532C6.87035 13.2532 5.96427 13.0631 5.25707 12.688C4.75152 12.4149 4.33461 12.045 4.01819 11.5886C3.69856 11.1276 3.53643 10.6701 3.53643 10.229C3.53643 9.95323 3.64203 9.71419 3.85035 9.51856C4.05648 9.32464 4.32064 9.2264 4.63563 9.2264C4.89419 9.2264 5.11717 9.30405 5.29851 9.45723C5.47168 9.604 5.62032 9.82117 5.73973 10.1017C5.87307 10.407 6.01845 10.6649 6.172 10.868C6.31957 11.0634 6.53189 11.2276 6.80304 11.3557C7.07584 11.4849 7.44357 11.5503 7.89589 11.5503C8.51792 11.5503 9.02795 11.4175 9.41157 11.1556C9.78624 10.8997 9.96843 10.5926 9.96843 10.2167C9.96843 9.91963 9.87333 9.68619 9.67781 9.50299C9.47301 9.31147 9.20293 9.1624 8.87488 9.06016C8.53291 8.95355 8.06864 8.83856 7.4944 8.71835C6.71648 8.55173 6.0552 8.35408 5.52853 8.13067C5.52651 8.12987 5.52443 8.12901 5.5224 8.12811C4.98283 7.89861 4.54795 7.58037 4.22981 7.18219C3.90667 6.77781 3.74293 6.27051 3.74293 5.67419C3.74293 5.10576 3.91483 4.59339 4.25387 4.15141C4.59035 3.71253 5.08176 3.37147 5.7144 3.13744C6.33888 2.90651 7.08171 2.78949 7.92219 2.78949C8.59419 2.78949 9.18501 2.86709 9.67813 3.02043C10.1741 3.17488 10.5922 3.38347 10.9207 3.64011C11.2517 3.89867 11.4978 4.17531 11.6524 4.46261C11.8086 4.7528 11.8877 5.0416 11.8877 5.32096C11.8877 5.58981 11.7839 5.83413 11.5791 6.04709C11.3731 6.26128 11.1131 6.37003 10.8063 6.37003C10.5276 6.37003 10.3095 6.30203 10.1582 6.16795C10.0173 6.04347 9.87131 5.84939 9.70912 5.57013C9.52149 5.21365 9.29445 4.93264 9.03392 4.73461C8.78112 4.54229 8.3584 4.44464 7.77765 4.44464C7.23829 4.44464 6.79963 4.55291 6.47392 4.76645C6.16005 4.97221 6.00757 5.20816 6.00757 5.48768C6.00757 5.65915 6.05664 5.8024 6.1576 5.92571C6.26453 6.05632 6.41536 6.17104 6.60603 6.2664C6.80379 6.36581 7.00757 6.4448 7.21173 6.50117C7.42085 6.5592 7.77173 6.64517 8.25291 6.75632C8.75989 6.86517 9.23205 6.98507 9.66187 7.11339C9.74821 7.13915 9.83355 7.16523 9.91632 7.19168C10.4174 7.35205 10.8504 7.54987 11.2035 7.77952C11.5639 8.01424 11.8493 8.31568 12.0518 8.67552C12.2549 9.03664 12.3578 9.48256 12.3578 10.0005C12.3577 10.6205 12.1805 11.1854 11.8312 11.6799Z" fill="white"/>
</svg>
