<svg width="17" height="16" viewBox="0 0 17 16" fill="none" xmlns="http://www.w3.org/2000/svg">
<path d="M16.3285 3.08466L13.4153 0.171438C13.3056 0.0616875 13.1567 0 13.0015 0H12.5553C12.4476 0 12.3602 0.087375 12.3602 0.195125V4.91744C12.3602 5.24072 12.0981 5.50281 11.7748 5.50281H5.22487C4.90159 5.50281 4.6395 5.24072 4.6395 4.91744V0.195125C4.6395 0.087375 4.55212 0 4.44438 0H1.08538C0.762094 0 0.5 0.262094 0.5 0.585375V15.4147C0.5 15.7379 0.762094 16 1.08538 16H15.9147C16.2379 16 16.5 15.7379 16.5 15.4146V3.49856C16.5 3.34334 16.4383 3.19441 16.3285 3.08466ZM13.0173 12.8196C13.0173 13.1428 12.7552 13.4049 12.4319 13.4049H4.56806C4.24478 13.4049 3.98269 13.1428 3.98269 12.8196V8.22169C3.98269 7.89841 4.24478 7.63631 4.56806 7.63631H12.4319C12.7552 7.63631 13.0173 7.89841 13.0173 8.22169V12.8196Z" fill="white"/>
<path d="M6.00537 3.94181H10.9943C11.1021 3.94181 11.1895 3.85444 11.1895 3.74669V0.195125C11.1895 0.087375 11.1021 0 10.9943 0H6.00537C5.89762 0 5.81025 0.087375 5.81025 0.195125V3.74669C5.81025 3.85444 5.89762 3.94181 6.00537 3.94181ZM9.10456 1.44594C9.10456 1.12266 9.36666 0.860563 9.68994 0.860563C10.0132 0.860563 10.2753 1.12266 10.2753 1.44594V2.49587C10.2753 2.81916 10.0132 3.08125 9.68994 3.08125C9.36666 3.08125 9.10456 2.81916 9.10456 2.49587V1.44594Z" fill="white"/>
<path d="M10.4504 9.93531H6.54956C6.22628 9.93531 5.96419 10.1974 5.96419 10.5207C5.96419 10.844 6.22628 11.1061 6.54956 11.1061H10.4504C10.7737 11.1061 11.0358 10.844 11.0358 10.5207C11.0358 10.1974 10.7737 9.93531 10.4504 9.93531Z" fill="white"/>
</svg>
