<svg width="16" height="16" viewBox="0 0 16 16" fill="none" xmlns="http://www.w3.org/2000/svg">
<path opacity="0.5" d="M10.1398 0.00925649C9.63109 -0.0331349 9.14661 0.0698156 8.6729 0.323491C8.0404 0.661949 7.58957 1.18141 7.38636 1.85766V1.90274L7.36281 2.06087L7.27264 1.90274L7.04723 1.49699C6.68657 0.933793 6.23574 0.595334 5.67186 0.437881C5.17662 0.326183 4.77021 0.372611 4.34225 0.599372C3.86787 0.892747 3.59805 1.34358 3.48501 1.97541C3.37196 2.62945 3.48501 3.26061 3.82279 3.8911L3.98159 4.11718L3.43858 3.93753C2.76233 3.77873 2.1305 3.86755 1.49867 4.20668C0.844628 4.54244 0.439555 5.0175 0.169058 5.67288C-0.0799077 6.30404 -0.0570298 6.913 0.258551 7.4762C0.394472 7.72516 0.597682 7.92703 0.778013 8.06295C1.04851 8.33345 1.38697 8.4909 1.79272 8.55819L1.95017 8.6026L1.61238 8.89732C1.29613 9.16782 1.1158 9.50493 1.00276 9.84339C0.889711 10.2491 0.935467 10.6556 1.16155 11.0391C1.27594 11.2194 1.3863 11.3776 1.56663 11.4899C1.74696 11.648 1.97305 11.7611 2.24354 11.7833C2.74013 11.8977 3.25825 11.8963 3.82212 11.716L3.4157 12.3923L3.30266 12.6856C3.07724 13.4083 3.14588 14.0381 3.48433 14.6928C3.64246 14.9418 3.82077 15.1672 4.00245 15.3697C4.2716 15.6174 4.61208 15.7748 5.0185 15.8879C5.69407 16.0682 6.37099 16.0467 7.02368 15.7082C7.65618 15.3697 8.06193 14.8267 8.26514 14.1505L8.28667 14.0159C8.7153 14.4889 9.12104 14.8052 9.57322 14.9176C10.024 15.0535 10.4749 15.032 10.8813 14.7608C11.2648 14.5354 11.536 14.1512 11.6713 13.6775C11.7843 13.1809 11.7843 12.6856 11.6713 12.1218C11.8967 12.2799 12.1221 12.3909 12.3926 12.4595C13.1146 12.685 13.7451 12.6614 14.3776 12.325C14.9859 11.9858 15.3923 11.4448 15.5955 10.7457C15.7758 10.0695 15.7314 9.41543 15.3936 8.7836L15.2792 8.60192C15.0996 8.33143 14.9179 8.06093 14.6467 7.8806C14.422 7.72247 14.1522 7.6101 13.9039 7.49706C14.6037 7.1586 15.0989 6.68489 15.3236 6.07594C15.4824 5.57935 15.438 5.17293 15.2113 4.76719V4.72278C14.9408 4.27195 14.5808 3.97924 14.0169 3.82112C13.6785 3.75383 13.2956 3.75248 12.9578 3.77536L12.2122 3.93349L12.4612 3.36962C12.686 2.64762 12.6193 1.94849 12.2358 1.29446L12.1685 1.18007C11.8301 0.616194 11.3341 0.278408 10.6572 0.0987494C10.4823 0.0536665 10.3093 0.0227141 10.1398 0.00925649ZM9.75624 0.960708C9.97358 0.940521 10.1936 0.968782 10.4069 1.04818C10.8806 1.15988 11.2191 1.4075 11.423 1.79104V1.79306C11.536 2.01847 11.6026 2.2883 11.6026 2.58167L11.5353 3.07826C11.4452 3.32722 11.3321 3.55129 11.1969 3.75383L9.16747 6.23675C8.96561 6.07863 8.73885 5.96558 8.51343 5.85321L8.28734 3.303L8.26514 2.40134L8.28667 2.17593C8.39972 1.7251 8.71597 1.38664 9.12104 1.16123C9.32425 1.04818 9.53823 0.980221 9.75624 0.960708ZM5.12481 1.32204C5.21498 1.31935 5.31053 1.34223 5.40069 1.38664C5.80644 1.49968 6.1449 1.79239 6.4154 2.35559C6.52979 2.58167 6.64148 2.80642 6.68657 3.07759L7.13739 5.74017L6.79826 5.85321L4.79106 3.66501L4.67802 3.44027C4.49634 3.03385 4.38532 2.65098 4.4304 2.24456V2.24322C4.45328 1.83747 4.61073 1.56832 4.88123 1.41019C4.94852 1.35367 5.03397 1.32474 5.12347 1.32272L5.12481 1.32204ZM13.2868 4.70864C13.3878 4.70864 13.4867 4.71336 13.5883 4.72479C13.9718 4.77055 14.2423 4.95155 14.3776 5.22272L14.4684 5.51408L14.4233 5.7395C14.2659 6.14524 13.9267 6.46217 13.3635 6.70979C13.1381 6.82283 12.8905 6.86791 12.62 6.91165L9.84573 7.25011L9.80065 7.09198L9.7549 7.02469L9.84573 6.91232L12.1248 5.0175L12.3939 4.9058L12.3953 4.90445C12.6981 4.76988 12.9908 4.71201 13.2889 4.70932L13.2868 4.70864ZM2.88345 4.83178C2.99111 4.83716 3.10147 4.85399 3.21316 4.88225V4.88359L3.82414 5.13054L5.80913 6.57521C5.62745 6.8013 5.51643 7.02604 5.44847 7.25146L2.19981 7.6572L1.97507 7.61279C1.56932 7.5455 1.29748 7.36383 1.11647 7.02739C0.934794 6.68893 0.936813 6.35047 1.07206 6.01134C1.23019 5.58339 1.52289 5.24426 1.95084 5.0646C2.25566 4.89503 2.5598 4.81361 2.88345 4.83178ZM7.70127 6.64183C8.10769 6.64183 8.4919 6.80063 8.74019 7.04825C9.05645 7.3645 9.19102 7.70296 9.19102 8.1087C9.19102 8.51445 9.05645 8.89732 8.74019 9.16782C8.44682 9.46119 8.10769 9.61864 7.70194 9.61864C7.27399 9.61864 6.91467 9.46052 6.6435 9.16782C6.35013 8.89732 6.19267 8.51512 6.19267 8.1087C6.19267 7.70296 6.35013 7.36383 6.6435 7.04825C6.914 6.79928 7.27399 6.64183 7.70261 6.64183H7.70127ZM13.3635 8.37786L13.5896 8.40141C13.9288 8.51445 14.2443 8.71631 14.424 9.0541C14.6501 9.30306 14.7625 9.64152 14.7625 10.0251L14.6952 10.4759C14.5828 10.9267 14.3116 11.2652 13.9281 11.4448C13.5223 11.6709 13.1159 11.716 12.6651 11.5592C12.3946 11.4919 12.2143 11.3789 12.0568 11.1986L9.68828 9.2351L9.84641 8.89732L9.91369 8.62615L12.4626 8.40073L13.3642 8.37718L13.3635 8.37786ZM8.89832 10.0251L9.84506 10.994L10.4305 11.716L10.5449 11.9428C10.7467 12.3263 10.8598 12.6863 10.814 13.1149C10.7696 13.52 10.6343 13.8134 10.3632 13.9264C10.2057 14.0395 10.0254 14.0408 9.84506 14.0173C9.41644 13.9056 9.07798 13.5678 8.83036 13.0261L8.55919 12.2806L8.2214 10.3178L8.6036 10.1832L8.89697 10.0251H8.89832ZM6.4625 10.0708C6.68724 10.1832 6.91333 10.2956 7.16229 10.3178C7.2067 11.0848 7.27332 11.897 7.38569 12.7765V13.6795L7.36348 13.9035C7.20468 14.3093 6.93419 14.6484 6.52911 14.8287C6.12269 15.0542 5.69474 15.0992 5.28765 14.9869C4.83682 14.8745 4.49836 14.6033 4.3187 14.2427C4.20431 14.0173 4.11415 13.7447 4.11415 13.4756L4.22854 12.9575C4.27295 12.7321 4.38666 12.5066 4.567 12.325L6.46182 10.0708H6.4625Z" fill="white"/>
</svg>
