<svg xmlns="http://www.w3.org/2000/svg" width="16" height="16" viewBox="0 0 16 16" fill="none"><div xmlns="" id="in-page-channel-node-id" data-channel-name="in_page_channel_Nb7Hqf"/>
<path fill-rule="evenodd" clip-rule="evenodd" d="M15.7255 5.92996C16.8687 10.1966 14.3367 14.5822 10.07 15.7255C5.80337 16.8687 1.41776 14.3367 0.274511 10.07C-0.86874 5.80337 1.66329 1.41776 5.92996 0.274511C10.1966 -0.86874 14.5822 1.66329 15.7255 5.92996ZM11.1652 12.2927C10.644 12.6772 10.0435 12.9726 9.38003 13.1503C6.53558 13.9125 3.61184 12.2245 2.84967 9.38003C2.41316 7.75092 2.78035 6.09581 3.70821 4.83567L11.1652 12.2927ZM12.6405 10.626L5.37301 3.35855C5.75695 3.1416 6.17427 2.9691 6.61997 2.84967C9.46442 2.08751 12.3882 3.77553 13.1503 6.61997C13.5271 8.02621 13.3051 9.45182 12.6405 10.626Z" fill="#FF4A4A"/>
</svg>