<svg width="26" height="26" viewBox="0 0 26 26" fill="none" xmlns="http://www.w3.org/2000/svg">
<g clip-path="url(#clip0_2905_427)">
<path d="M15.6 1.196V11.999C15.6 13.325 14.521 14.404 13.195 14.404H1.3C0.585 14.404 0 13.819 0 13.104V4.797C0 2.145 2.145 0 4.797 0H14.391C15.067 0 15.6 0.533 15.6 1.196Z" fill="#5C6D89"/>
<path d="M25.35 17.55C25.714 17.55 26 17.836 26 18.2V19.5C26 21.658 24.258 23.4 22.1 23.4C22.1 21.255 20.345 19.5 18.2 19.5C16.055 19.5 14.3 21.255 14.3 23.4H11.7C11.7 21.255 9.945 19.5 7.8 19.5C5.655 19.5 3.9 21.255 3.9 23.4C1.742 23.4 0 21.658 0 19.5V16.9C0 16.185 0.585 15.6 1.3 15.6H13.65C15.444 15.6 16.9 14.144 16.9 12.35V5.2C16.9 4.485 17.485 3.9 18.2 3.9H19.292C20.228 3.9 21.086 4.407 21.554 5.213L22.386 6.669C22.503 6.877 22.347 7.15 22.1 7.15C20.306 7.15 18.85 8.606 18.85 10.4V14.3C18.85 16.094 20.306 17.55 22.1 17.55H25.35Z" fill="#5C6D89"/>
<path d="M7.8 26C9.23594 26 10.4 24.836 10.4 23.4C10.4 21.964 9.23594 20.8 7.8 20.8C6.36406 20.8 5.2 21.964 5.2 23.4C5.2 24.836 6.36406 26 7.8 26Z" fill="#5C6D89"/>
<path d="M18.2 26C19.636 26 20.8 24.836 20.8 23.4C20.8 21.964 19.636 20.8 18.2 20.8C16.764 20.8 15.6 21.964 15.6 23.4C15.6 24.836 16.764 26 18.2 26Z" fill="#5C6D89"/>
<path d="M26 13.689V15.6H22.1C21.385 15.6 20.8 15.015 20.8 14.3V10.4C20.8 9.685 21.385 9.1 22.1 9.1H23.777L25.662 12.402C25.883 12.792 26 13.234 26 13.689Z" fill="#5C6D89"/>
</g>
<defs>
<clipPath id="clip0_2905_427">
<rect width="26" height="26" fill="white"/>
</clipPath>
</defs>
</svg>
