<svg xmlns="http://www.w3.org/2000/svg" width="13" height="16" fill="none"><div xmlns="" id="in-page-channel-node-id" data-channel-name="in_page_channel_19KWDP"/><path d="M10.113 1.372H7.1V0H3.01v1.372H0V3.54h10.113V1.373Zm-6.018-.288h1.923v.288H4.095v-.288ZM9.15 7.74l.205-3.117H.758l.687 10.474h4.123a4.649 4.649 0 0 1-.852-2.688A4.68 4.68 0 0 1 9.15 7.74Z" fill="#FF4A4A"/><path d="M9.39 8.818a3.595 3.595 0 0 0-3.59 3.59A3.595 3.595 0 0 0 9.39 16a3.595 3.595 0 0 0 3.592-3.591A3.595 3.595 0 0 0 9.39 8.818Zm1.957 4.781-.766.767-1.19-1.191-1.191 1.19-.766-.766 1.19-1.19-1.19-1.19.766-.767 1.19 1.19 1.191-1.19.766.766-1.19 1.19 1.19 1.191Z" fill="#FF4A4A"/></svg>