<svg width="14" height="16" viewBox="0 0 14 16" fill="none" xmlns="http://www.w3.org/2000/svg">
<path d="M12.4598 3.9668L8.24319 0.501376C7.89583 0.21554 7.28769 0 6.8286 0H1.97369C1.38148 0 0.899704 0.474394 0.899704 1.05761C0.899793 1.19726 0.907221 15.0252 0.907221 15.0977C0.907221 15.6259 1.27673 15.9949 1.80581 15.9949C2.1414 15.9949 12.0588 16 12.0588 16C12.6331 16 13.1003 15.5201 13.1003 14.9302V5.35486C13.1003 4.86386 12.8249 4.26713 12.4598 3.9668ZM9.72056 10.5562L7.29391 14.0198C7.22451 14.1188 7.1203 14.1756 7.00794 14.1756C6.89563 14.1756 6.79142 14.1188 6.72202 14.0198L4.29559 10.5564C4.22024 10.4489 4.20708 10.3287 4.26038 10.2263C4.31367 10.1239 4.42383 10.0678 4.55512 10.0678H5.98568V6.63423C5.98568 6.41215 6.16816 6.21966 6.39023 6.21966H7.6262C7.84827 6.21966 8.04399 6.41215 8.04399 6.63423V10.0678H9.46099C9.59223 10.0678 9.7024 10.1238 9.75569 10.2261C9.80898 10.3285 9.79587 10.4487 9.72056 10.5562ZM8.218 5.05627C7.55832 5.05627 7.50704 4.49346 7.50704 4.32096V1.38546L12.1374 5.05627H8.218Z" fill="#5C6D89"/>
</svg>
