<svg width="26" height="27" viewBox="0 0 26 27" fill="none" xmlns="http://www.w3.org/2000/svg">
<g clip-path="url(#clip0_2905_415)">
<path d="M7.38272 1.96296C7.38272 1.43114 6.95158 1 6.41975 1C5.88793 1 5.45679 1.43114 5.45679 1.96296V3.99065C3.60876 4.13863 2.39556 4.50181 1.50424 5.39313C0.61292 6.28444 0.249741 7.49765 0.101766 9.34568H25.5772C25.4293 7.49765 25.0661 6.28444 24.1747 5.39313C23.2834 4.50181 22.0702 4.13863 20.2222 3.99065V1.96296C20.2222 1.43114 19.7911 1 19.2593 1C18.7274 1 18.2963 1.43114 18.2963 1.96296V3.90545C17.4421 3.88889 16.4846 3.88889 15.4074 3.88889H10.2716C9.19433 3.88889 8.23689 3.88889 7.38272 3.90545V1.96296Z" fill="#5C6D89"/>
<path fill-rule="evenodd" clip-rule="evenodd" d="M0 14.1605C0 13.0833 1.45789e-07 12.1258 0.0165631 11.2716H25.6625C25.679 12.1258 25.679 13.0833 25.679 14.1605V16.7284C25.679 21.5704 25.679 23.9916 24.1747 25.4957C22.6706 27 20.2494 27 15.4074 27H10.2716C5.42952 27 3.00849 27 1.50424 25.4957C1.46937e-07 23.9916 0 21.5704 0 16.7284V14.1605ZM19.2593 16.7284C19.9684 16.7284 20.5432 16.1536 20.5432 15.4444C20.5432 14.7353 19.9684 14.1605 19.2593 14.1605C18.5501 14.1605 17.9753 14.7353 17.9753 15.4444C17.9753 16.1536 18.5501 16.7284 19.2593 16.7284ZM19.2593 21.8642C19.9684 21.8642 20.5432 21.2894 20.5432 20.5802C20.5432 19.8711 19.9684 19.2963 19.2593 19.2963C18.5501 19.2963 17.9753 19.8711 17.9753 20.5802C17.9753 21.2894 18.5501 21.8642 19.2593 21.8642ZM14.1235 15.4444C14.1235 16.1536 13.5486 16.7284 12.8395 16.7284C12.1304 16.7284 11.5556 16.1536 11.5556 15.4444C11.5556 14.7353 12.1304 14.1605 12.8395 14.1605C13.5486 14.1605 14.1235 14.7353 14.1235 15.4444ZM14.1235 20.5802C14.1235 21.2894 13.5486 21.8642 12.8395 21.8642C12.1304 21.8642 11.5556 21.2894 11.5556 20.5802C11.5556 19.8711 12.1304 19.2963 12.8395 19.2963C13.5486 19.2963 14.1235 19.8711 14.1235 20.5802ZM6.41975 16.7284C7.12885 16.7284 7.7037 16.1536 7.7037 15.4444C7.7037 14.7353 7.12885 14.1605 6.41975 14.1605C5.71065 14.1605 5.1358 14.7353 5.1358 15.4444C5.1358 16.1536 5.71065 16.7284 6.41975 16.7284ZM6.41975 21.8642C7.12885 21.8642 7.7037 21.2894 7.7037 20.5802C7.7037 19.8711 7.12885 19.2963 6.41975 19.2963C5.71065 19.2963 5.1358 19.8711 5.1358 20.5802C5.1358 21.2894 5.71065 21.8642 6.41975 21.8642Z" fill="#5C6D89"/>
</g>
<defs>
<clipPath id="clip0_2905_415">
<rect width="26" height="26" fill="white" transform="translate(0 0.5)"/>
</clipPath>
</defs>
</svg>
