<svg xmlns="http://www.w3.org/2000/svg" width="16" height="16" fill="none"><div xmlns="" id="in-page-channel-node-id" data-channel-name="in_page_channel_0_xoN1"/><path d="M8 0C3.589 0 0 3.589 0 8s3.589 8 8 8 8-3.589 8-8-3.589-8-8-8Zm0 2.783c.959 0 1.74.78 1.74 1.739C9.74 5.48 8.958 6.26 8 6.26s-1.74-.78-1.74-1.74c0-.958.781-1.738 1.74-1.738Zm2.087 10.434H6.609a1.045 1.045 0 0 1-1.044-1.043c0-.575.468-1.044 1.044-1.044h.348V9.043h-.348A1.045 1.045 0 0 1 5.565 8c0-.575.468-1.043 1.044-1.043H9.39c.192 0 .348.155.348.347v3.826h.348a1.045 1.045 0 0 1 0 2.087Z" fill="#5C6D89"/></svg>