<svg width="12" height="12" viewBox="0 0 12 12" fill="none" xmlns="http://www.w3.org/2000/svg">
<path d="M11.6157 5.34878C11.5917 5.29131 11.5573 5.23903 11.5135 5.19522L10.1009 3.78265C9.91677 3.59895 9.61908 3.59895 9.43492 3.78265C9.25076 3.96681 9.25076 4.26496 9.43492 4.44865L10.0439 5.05767H7.41284C7.15238 5.05767 6.94183 5.26868 6.94183 5.52868C6.94183 5.78868 7.15238 5.99969 7.41284 5.99969H10.0439L9.4349 6.60871C9.25074 6.79287 9.25074 7.09102 9.4349 7.27471C9.52675 7.36702 9.64732 7.41273 9.76791 7.41273C9.88851 7.41273 10.0091 7.36705 10.1009 7.27471L11.5135 5.86214C11.5573 5.8188 11.5917 5.76651 11.6157 5.70858C11.6633 5.5937 11.6633 5.4637 11.6157 5.34878Z" fill="white"/>
<path d="M8.35487 6.94185C8.09441 6.94185 7.88387 7.15286 7.88387 7.41286V9.76793H5.99982V2.2317C5.99982 2.02399 5.86322 1.84029 5.66398 1.78048L4.02814 1.28969H7.88387V3.64477C7.88387 3.90477 8.09441 4.11577 8.35487 4.11577C8.61534 4.11577 8.82588 3.90477 8.82588 3.64477V0.818685C8.82588 0.558663 8.61534 0.347656 8.35487 0.347656H0.818663C0.801706 0.347656 0.786626 0.354721 0.770155 0.356598C0.74801 0.358961 0.727764 0.362714 0.706569 0.367902C0.657112 0.38062 0.612359 0.399939 0.570453 0.426301C0.560098 0.432902 0.547381 0.433366 0.537489 0.440895C0.533692 0.443743 0.532279 0.448932 0.528503 0.451758C0.47717 0.49225 0.434315 0.541706 0.403229 0.600591C0.396627 0.613308 0.395214 0.626975 0.390047 0.640156C0.374968 0.675945 0.358497 0.710808 0.352845 0.750373C0.350482 0.764503 0.354721 0.777684 0.354258 0.791351C0.353794 0.800779 0.347656 0.809257 0.347656 0.818662V10.2389C0.347656 10.4636 0.50638 10.6567 0.726351 10.7005L5.43648 11.6426C5.4671 11.6492 5.49819 11.652 5.52879 11.652C5.63665 11.652 5.74262 11.6148 5.82741 11.5451C5.93621 11.4556 5.9998 11.3223 5.9998 11.181V10.71H8.35487C8.61534 10.71 8.82588 10.499 8.82588 10.239V7.41286C8.82588 7.15286 8.61534 6.94185 8.35487 6.94185Z" fill="white"/>
</svg>
