<svg width="26" height="24" viewBox="0 0 26 24" fill="none" xmlns="http://www.w3.org/2000/svg">
<path d="M19.0912 18.4847C17.8453 18.4846 16.8317 17.4711 16.8317 16.2252V12.4728C16.8317 11.227 17.8453 10.2134 19.0912 10.2134H24.9786C25.0143 10.2134 25.0497 10.2145 25.085 10.2161V6.4781C25.085 5.51591 24.305 4.73591 23.3428 4.73591H1.74225C0.780004 4.73585 0 5.51586 0 6.47805V22.2199C0 23.1821 0.780004 23.9622 1.74225 23.9622H23.3428C24.305 23.9622 25.085 23.1822 25.085 22.2199V18.482C25.0497 18.4836 25.0143 18.4847 24.9786 18.4847H19.0912Z" fill="white"/>
<path d="M24.9786 11.4515H19.0912C18.5271 11.4515 18.0698 11.9088 18.0698 12.4728V16.2252C18.0698 16.7893 18.5271 17.2466 19.0912 17.2466H24.9786C25.5427 17.2466 26 16.7893 26 16.2252V12.4728C26 11.9087 25.5427 11.4515 24.9786 11.4515ZM21.1199 15.8232C20.3057 15.8232 19.6457 15.1632 19.6457 14.349C19.6457 13.5348 20.3057 12.8748 21.1199 12.8748C21.9341 12.8748 22.5941 13.5348 22.5941 14.349C22.5941 15.1632 21.9341 15.8232 21.1199 15.8232Z" fill="white"/>
<path d="M20.3092 1.54456C19.9194 0.364803 18.6471 -0.275599 17.4674 0.114176L8.61645 3.03828H20.8027L20.3092 1.54456Z" fill="white"/>
</svg>
