<svg width="16" height="16" viewBox="0 0 16 16" fill="none" xmlns="http://www.w3.org/2000/svg">
<path d="M10.1398 0.00924123C9.63109 -0.0331502 9.14661 0.0698004 8.6729 0.323476C8.0404 0.661934 7.58957 1.1814 7.38636 1.85764V1.90272L7.36281 2.06085L7.27264 1.90272L7.04723 1.49698C6.68657 0.933777 6.23574 0.595319 5.67186 0.437865C5.17662 0.326167 4.77021 0.372596 4.34225 0.599356C3.86787 0.892732 3.59805 1.34356 3.48501 1.97539C3.37196 2.62943 3.48501 3.26059 3.82279 3.89108L3.98159 4.11717L3.43858 3.93751C2.76233 3.77871 2.1305 3.86753 1.49867 4.20666C0.844628 4.54243 0.439555 5.01748 0.169058 5.67287C-0.0799077 6.30403 -0.0570298 6.91298 0.258551 7.47618C0.394472 7.72515 0.597682 7.92701 0.778013 8.06293C1.04851 8.33343 1.38697 8.49088 1.79272 8.55817L1.95017 8.60258L1.61238 8.8973C1.29613 9.1678 1.1158 9.50491 1.00276 9.84337C0.889711 10.2491 0.935467 10.6555 1.16155 11.0391C1.27594 11.2194 1.3863 11.3775 1.56663 11.4899C1.74696 11.648 1.97305 11.7611 2.24354 11.7833C2.74013 11.8977 3.25825 11.8963 3.82212 11.716L3.4157 12.3922L3.30266 12.6856C3.07724 13.4083 3.14588 14.0381 3.48433 14.6928C3.64246 14.9418 3.82077 15.1672 4.00245 15.3697C4.2716 15.6173 4.61208 15.7748 5.0185 15.8878C5.69407 16.0682 6.37099 16.0466 7.02368 15.7082C7.65618 15.3697 8.06193 14.8267 8.26514 14.1505L8.28667 14.0159C8.7153 14.4889 9.12104 14.8052 9.57322 14.9176C10.024 15.0535 10.4749 15.0319 10.8813 14.7608C11.2648 14.5354 11.536 14.1511 11.6713 13.6774C11.7843 13.1809 11.7843 12.6856 11.6713 12.1217C11.8967 12.2799 12.1221 12.3909 12.3926 12.4595C13.1146 12.6849 13.7451 12.6614 14.3776 12.325C14.9859 11.9858 15.3923 11.4448 15.5955 10.7457C15.7758 10.0695 15.7314 9.41542 15.3936 8.78359L15.2792 8.60191C15.0996 8.33141 14.9179 8.06091 14.6467 7.88058C14.422 7.72246 14.1522 7.61008 13.9039 7.49704C14.6037 7.15858 15.0989 6.68488 15.3236 6.07592C15.4824 5.57934 15.438 5.17292 15.2113 4.76717V4.72276C14.9408 4.27193 14.5808 3.97923 14.0169 3.8211C13.6785 3.75381 13.2956 3.75247 12.9578 3.77535L12.2122 3.93347L12.4612 3.3696C12.686 2.6476 12.6193 1.94848 12.2358 1.29444L12.1685 1.18005C11.8301 0.616178 11.3341 0.278393 10.6572 0.0987342C10.4823 0.0536513 10.3093 0.0226988 10.1398 0.00924123ZM9.75624 0.960692C9.97358 0.940506 10.1936 0.968767 10.4069 1.04817C10.8806 1.15986 11.2191 1.40748 11.423 1.79103V1.79304C11.536 2.01846 11.6026 2.28828 11.6026 2.58166L11.5353 3.07824C11.4452 3.32721 11.3321 3.55128 11.1969 3.75381L9.16747 6.23674C8.96561 6.07861 8.73885 5.96557 8.51343 5.8532L8.28734 3.30298L8.26514 2.40133L8.28667 2.17591C8.39972 1.72508 8.71597 1.38662 9.12104 1.16121C9.32425 1.04817 9.53823 0.980206 9.75624 0.960692ZM5.12481 1.32203C5.21498 1.31934 5.31053 1.34222 5.40069 1.38663C5.80644 1.49967 6.1449 1.79237 6.4154 2.35557C6.52979 2.58166 6.64148 2.8064 6.68657 3.07757L7.13739 5.74015L6.79826 5.8532L4.79106 3.66499L4.67802 3.44025C4.49634 3.03383 4.38532 2.65096 4.4304 2.24455V2.2432C4.45328 1.83745 4.61073 1.5683 4.88123 1.41018C4.94852 1.35365 5.03397 1.32472 5.12347 1.3227L5.12481 1.32203ZM13.2868 4.70863C13.3878 4.70863 13.4867 4.71334 13.5883 4.72478C13.9718 4.77053 14.2423 4.95154 14.3776 5.22271L14.4684 5.51407L14.4233 5.73948C14.2659 6.14523 13.9267 6.46215 13.3635 6.70977C13.1381 6.82282 12.8905 6.8679 12.62 6.91164L9.84573 7.25009L9.80065 7.09197L9.7549 7.02468L9.84573 6.91231L12.1248 5.01748L12.3939 4.90578L12.3953 4.90444C12.6981 4.76986 12.9908 4.71199 13.2889 4.7093L13.2868 4.70863ZM2.88345 4.83177C2.99111 4.83715 3.10147 4.85397 3.21316 4.88223V4.88358L3.82414 5.13052L5.80913 6.5752C5.62745 6.80128 5.51643 7.02603 5.44847 7.25144L2.19981 7.65719L1.97507 7.61278C1.56932 7.54549 1.29748 7.36381 1.11647 7.02737C0.934794 6.68891 0.936813 6.35046 1.07206 6.01132C1.23019 5.58337 1.52289 5.24424 1.95084 5.06458C2.25566 4.89502 2.5598 4.8136 2.88345 4.83177ZM7.70127 6.64181C8.10769 6.64181 8.4919 6.80061 8.74019 7.04823C9.05645 7.36448 9.19102 7.70294 9.19102 8.10869C9.19102 8.51443 9.05645 8.8973 8.74019 9.1678C8.44682 9.46118 8.10769 9.61863 7.70194 9.61863C7.27399 9.61863 6.91467 9.4605 6.6435 9.1678C6.35013 8.8973 6.19267 8.51511 6.19267 8.10869C6.19267 7.70294 6.35013 7.36381 6.6435 7.04823C6.914 6.79927 7.27399 6.64181 7.70261 6.64181H7.70127ZM13.3635 8.37784L13.5896 8.40139C13.9288 8.51443 14.2443 8.7163 14.424 9.05408C14.6501 9.30305 14.7625 9.64151 14.7625 10.025L14.6952 10.4759C14.5828 10.9267 14.3116 11.2652 13.9281 11.4448C13.5223 11.6709 13.1159 11.716 12.6651 11.5592C12.3946 11.4919 12.2143 11.3789 12.0568 11.1985L9.68828 9.23509L9.84641 8.8973L9.91369 8.62613L12.4626 8.40072L13.3642 8.37717L13.3635 8.37784ZM8.89832 10.025L9.84506 10.994L10.4305 11.716L10.5449 11.9428C10.7467 12.3263 10.8598 12.6863 10.814 13.1149C10.7696 13.52 10.6343 13.8134 10.3632 13.9264C10.2057 14.0394 10.0254 14.0408 9.84506 14.0172C9.41644 13.9055 9.07798 13.5678 8.83036 13.0261L8.55919 12.2805L8.2214 10.3178L8.6036 10.1832L8.89697 10.025H8.89832ZM6.4625 10.0708C6.68724 10.1832 6.91333 10.2955 7.16229 10.3178C7.2067 11.0848 7.27332 11.897 7.38569 12.7765V13.6795L7.36348 13.9035C7.20468 14.3093 6.93419 14.6484 6.52911 14.8287C6.12269 15.0541 5.69474 15.0992 5.28765 14.9869C4.83682 14.8745 4.49836 14.6033 4.3187 14.2427C4.20431 14.0172 4.11415 13.7447 4.11415 13.4756L4.22854 12.9575C4.27295 12.732 4.38666 12.5066 4.567 12.325L6.46182 10.0708H6.4625Z" fill="#5C6D89"/>
</svg>
