<svg width="12" height="12" viewBox="0 0 12 12" fill="none" xmlns="http://www.w3.org/2000/svg">
<path d="M4.28571 0H0.857143C0.383771 0 0 0.383771 0 0.857143V4.28571C0 4.75909 0.383771 5.14286 0.857143 5.14286H4.28571C4.75909 5.14286 5.14286 4.75909 5.14286 4.28571V0.857143C5.14286 0.383771 4.75909 0 4.28571 0Z" fill="white"/>
<path d="M4.28571 6.85714H0.857143C0.383771 6.85714 0 7.24091 0 7.71429V11.1429C0 11.6162 0.383771 12 0.857143 12H4.28571C4.75909 12 5.14286 11.6162 5.14286 11.1429V7.71429C5.14286 7.24091 4.75909 6.85714 4.28571 6.85714Z" fill="white"/>
<path d="M11.1429 0H7.71429C7.24091 0 6.85714 0.383771 6.85714 0.857143V4.28571C6.85714 4.75909 7.24091 5.14286 7.71429 5.14286H11.1429C11.6162 5.14286 12 4.75909 12 4.28571V0.857143C12 0.383771 11.6162 0 11.1429 0Z" fill="white"/>
<path d="M11.1429 6.85714H7.71429C7.24091 6.85714 6.85714 7.24091 6.85714 7.71429V11.1429C6.85714 11.6162 7.24091 12 7.71429 12H11.1429C11.6162 12 12 11.6162 12 11.1429V7.71429C12 7.24091 11.6162 6.85714 11.1429 6.85714Z" fill="white"/>
</svg>
