<svg width="16" height="16" viewBox="0 0 16 16" fill="none" xmlns="http://www.w3.org/2000/svg">
<path d="M8 0C3.58889 0 0 3.58889 0 8C0 12.4111 3.58889 16 8 16C12.4111 16 16 12.4111 16 8C16 3.58889 12.4111 0 8 0ZM8 2.7826C8.9586 2.7826 9.73912 3.56312 9.73912 4.52172C9.73912 5.48032 8.95863 6.26088 8 6.26088C7.04137 6.26088 6.26088 5.48036 6.26088 4.52176C6.26088 3.56316 7.0414 2.7826 8 2.7826ZM10.087 13.2174H6.60872C6.0334 13.2174 5.56524 12.7492 5.56524 12.1739C5.56524 11.5986 6.0334 11.1304 6.60872 11.1304H6.95655V9.04348H6.60872C6.0334 9.04348 5.56524 8.57532 5.56524 8C5.56524 7.42468 6.0334 6.95652 6.60872 6.95652H9.39132C9.58332 6.95652 9.73915 7.11236 9.73915 7.30436V11.1304H10.087C10.6623 11.1304 11.1305 11.5986 11.1305 12.1739C11.1304 12.7492 10.6623 13.2174 10.087 13.2174Z" fill="#5C6D89"/>
</svg>
