<svg width="193" height="60" viewBox="0 0 193 60" fill="none" xmlns="http://www.w3.org/2000/svg">
<path fill-rule="evenodd" clip-rule="evenodd" d="M41.048 60L80.827 46.0485H0L41.048 60Z" fill="#2E364A"/>
<path fill-rule="evenodd" clip-rule="evenodd" d="M41.048 54.8896L80.827 40.9383H0L41.048 54.8896Z" fill="#566885"/>
<path fill-rule="evenodd" clip-rule="evenodd" d="M41.0481 50.3325L80.8271 36.3811L48.9129 36.3977C48.8874 38.85 44.2994 40.1311 41.0604 40.0929C36.9191 40.0439 33.2289 38.5664 33.2076 36.3977L0 36.3811L41.048 50.3325H41.0481Z" fill="#D6E1EF"/>
<path fill-rule="evenodd" clip-rule="evenodd" d="M29.4944 2.24657C29.6188 2.22841 39.8965 1.34918 44.0876 2.0856C47.7669 2.73206 55.7835 4.29387 56.7861 5.3904C46.4493 5.62759 43.5441 6.01659 38.6514 7.24789C34.1222 4.20055 30.0391 2.40271 29.4944 2.24657L29.4944 2.24657Z" fill="#60718D"/>
<path fill-rule="evenodd" clip-rule="evenodd" d="M28.0013 2.25093C28.3638 2.56465 31.3552 3.3689 34.1781 6.28957C32.9286 5.01153 28.218 2.37351 28.0013 2.25093Z" fill="#60718D"/>
<path fill-rule="evenodd" clip-rule="evenodd" d="M16.7149 6.48325C17.8328 5.70069 25.084 2.81544 27.3046 2.97533C29.4479 3.354 33.3622 6.95268 33.5273 7.7991C33.4125 7.76764 32.4803 7.14041 29.1604 6.73514C25.8406 6.32983 16.7148 6.48323 16.7148 6.48323L16.7149 6.48325Z" fill="#60718D"/>
<path fill-rule="evenodd" clip-rule="evenodd" d="M17.1291 3.94184C17.1291 3.94184 18.8899 2.34874 21.3075 2.71209C19.272 2.83497 17.1291 3.94184 17.1291 3.94184Z" fill="#60718D"/>
<path fill-rule="evenodd" clip-rule="evenodd" d="M16.8622 5.21972C18.0502 4.12942 24.4167 0.251705 35.5221 0C46.9352 0 54.9908 3.34905 57.0613 4.67805C55.3841 4.14719 48.8092 1.04145 35.5221 1.26534C22.8222 1.48928 16.8622 5.21971 16.8622 5.21971V5.21972Z" fill="#60718D"/>
<path fill-rule="evenodd" clip-rule="evenodd" d="M60.0603 6.09172C60.0603 6.09172 64.068 6.18069 66.332 6.45701C68.5958 6.73337 74.3581 8.67151 77.1617 10.7795C78.6874 11.9265 80.1394 12.9542 79.8036 15.6278C79.8036 15.6278 79.9616 13.1457 78.0824 11.6623C77.9001 11.5184 77.7262 11.3493 77.5029 11.2281C73.9653 9.07487 69.7695 7.78379 66.2406 6.98664C63.1964 6.58159 60.0604 6.09175 60.0604 6.09175L60.0603 6.09172Z" fill="#60718D"/>
<path fill-rule="evenodd" clip-rule="evenodd" d="M77.8943 12.9124L78.7953 12.804C78.7953 12.804 79.4974 13.8498 79.4276 14.8699C79.159 14.9384 78.2362 15.4447 78.2362 15.4447C78.2362 15.4447 78.2822 13.8383 77.8943 12.9124V12.9124Z" fill="#60718D"/>
<path fill-rule="evenodd" clip-rule="evenodd" d="M79.0227 16.0034C79.7256 16.6037 80.931 18.6236 80.931 21.6403C80.931 25.4113 79.0838 27.6371 79.4573 27.0798C79.8309 26.5225 80.7913 23.746 80.5424 20.9967C80.3697 19.0886 80.1335 17.5306 79.0227 16.0034Z" fill="#60718D"/>
<path fill-rule="evenodd" clip-rule="evenodd" d="M79.0137 18.4244C79.0137 18.4244 79.4852 20.656 79.3298 22.3106C79.1745 23.9653 78.2392 26.3012 77.6709 26.9523C78.177 26.0524 78.7291 24.2889 79.0262 22.4757C79.2604 21.0469 79.0733 19.5373 79.0137 18.4244V18.4244Z" fill="#60718D"/>
<path fill-rule="evenodd" clip-rule="evenodd" d="M76.8831 11.6762C76.8831 11.6762 77.6752 12.2375 77.8429 13.8725C78.0106 15.5075 78.016 19.1496 77.6946 21.6615C77.3731 24.1735 76.3189 26.6333 75.8241 27.3981C76.1473 26.8162 77.0573 23.6842 77.2727 21.913C77.4291 20.2013 77.6001 15.832 77.5548 14.0384C77.5363 13.3039 77.5184 12.4213 76.8831 11.6762L76.8831 11.6762Z" fill="#60718D"/>
<path fill-rule="evenodd" clip-rule="evenodd" d="M50.9956 16.2849C50.9956 16.2849 53.3295 14.8255 57.0628 14.0951C60.796 13.3648 63.6593 12.7756 66.7769 12.5205C69.8944 12.2654 76.5041 12.6112 77.7296 12.7528C75.796 12.823 71.9301 13.013 67.583 13.2228C65.7862 13.3095 62.948 13.9659 60.7174 14.2122C59.2685 14.3722 56.2292 14.9007 56.2292 14.9007C56.2292 14.9007 53.962 15.0876 50.9955 16.2849L50.9956 16.2849Z" fill="#60718D"/>
<path fill-rule="evenodd" clip-rule="evenodd" d="M70.2958 17.6344C70.2958 17.6344 70.8373 19.0448 71.0509 21.1089C71.2646 23.1731 70.995 26.0587 70.995 26.0587C70.995 26.0587 70.7141 28.295 70.4273 29.0782C70.6392 27.7275 70.8611 25.1937 70.8241 24.4824C70.7655 23.3532 71.0797 21.3773 70.2958 17.6344L70.2958 17.6344Z" fill="#60718D"/>
<path fill-rule="evenodd" clip-rule="evenodd" d="M56.2671 25.7744C56.2671 25.7744 61.0188 25.388 64.0857 25.0422C67.4878 24.6586 68.9823 24.1454 70.8206 23.7504C73.0998 23.2607 77.6143 21.8436 79.8037 20.955C78.6659 21.603 74.626 23.665 68.4862 25.0775C66.6898 25.4282 64.3918 26.054 56.2671 25.7744Z" fill="#60718D"/>
<path fill-rule="evenodd" clip-rule="evenodd" d="M52.67 19.0387C52.67 19.0387 59.2601 18.9288 62.7348 18.8149C66.2095 18.701 69.9352 18.0551 71.3855 17.7471C72.783 17.4502 77.3195 16.8116 80.3111 14.4907C79.3537 15.5165 76.5252 17.4704 71.609 18.4211C69.5302 18.8231 65.2607 20.4652 52.67 19.0387V19.0387Z" fill="#60718D"/>
<path fill-rule="evenodd" clip-rule="evenodd" d="M41.4869 27.4191C41.4869 27.4191 46.8391 27.1955 48.9353 27.4191C46.5456 27.5868 41.4869 27.4191 41.4869 27.4191Z" fill="#60718D"/>
<path fill-rule="evenodd" clip-rule="evenodd" d="M49.3265 27.4051C49.3265 27.4051 46.3353 29.0367 45.944 29.6516C45.9553 29.822 46.0303 29.9798 46.1124 30.0882C46.4687 30.2209 51.0562 30.506 52.6778 30.2815C54.2995 30.0569 60.4848 29.5357 60.4848 29.5357C60.4848 29.5357 56.8772 29.4878 52.856 29.7085C50.3208 29.8476 47.8357 29.7957 46.5146 29.7073C46.6751 29.3196 48 28.4796 49.3265 27.4051H49.3265Z" fill="#60718D"/>
<path fill-rule="evenodd" clip-rule="evenodd" d="M44.9089 26.784C44.9089 26.784 49.5206 26.4862 52.8493 26.612C56.178 26.7377 56.8384 26.8525 60.9427 26.7826C65.047 26.7127 69.4241 25.942 70.8003 25.4413C71.6598 25.1285 73.8079 25.0142 76.9956 23.3574C76.8264 23.7853 73.3982 25.4001 70.7097 26.1152C69.485 26.5472 65.9427 27.5617 62.7396 27.6819C59.5365 27.802 56.1853 27.6466 55.4511 27.616C54.1084 27.5601 44.9089 26.784 44.9089 26.784V26.784Z" fill="#60718D"/>
<path fill-rule="evenodd" clip-rule="evenodd" d="M54.2033 14.2612C54.2744 16.2869 54.8377 17.9398 56.1138 20.0508C57.4259 22.2212 59.9775 25.0486 60.2625 25.2629C59.777 24.6245 56.5201 20.1362 56.1655 19.376C55.7298 18.4419 54.6677 17.0808 54.2033 14.2612V14.2612Z" fill="#60718D"/>
<path fill-rule="evenodd" clip-rule="evenodd" d="M11.9237 6.73675C11.9237 6.73675 12.8075 4.84914 17.0278 4.99586C13.2057 5.68063 12.2241 6.35244 11.9237 6.73675Z" fill="#60718D"/>
<path fill-rule="evenodd" clip-rule="evenodd" d="M11.0804 6.96201C11.0712 6.9689 9.94676 7.82587 9.62491 8.92564C9.3618 9.82475 9.15852 10.4994 9.1166 12.0156C9.34437 11.2338 9.68039 10.0072 9.79212 9.43261C9.93652 8.69021 10.4112 7.68591 11.0804 6.96201Z" fill="#60718D"/>
<path fill-rule="evenodd" clip-rule="evenodd" d="M13.581 13.3745C13.6878 13.3034 14.2434 13.0267 16.4165 12.9157C18.6192 12.8032 23.9388 13.2512 23.9388 13.2512C20.5141 13.3027 15.5956 13.0911 13.6689 13.5341L13.581 13.3745L13.581 13.3745Z" fill="#60718D"/>
<path fill-rule="evenodd" clip-rule="evenodd" d="M15.0126 14.77C15.0126 14.77 14.5042 13.819 16.3024 13.6443C17.6408 13.5143 19.5322 13.7108 20.0682 13.813C20.892 13.9702 22.3014 14.4074 22.4675 14.5345C22.6072 14.6044 21.1164 14.1469 19.6152 13.9794C18.114 13.812 17.1195 13.7247 16.0209 13.8149C15.2725 13.8764 14.9307 14.2449 15.0126 14.77V14.77Z" fill="#60718D"/>
<path fill-rule="evenodd" clip-rule="evenodd" d="M44.5751 12.3685L48.7814 13.6122L47.1324 15.1214C47.1324 15.1214 45.148 13.9755 44.5751 12.3685Z" fill="#60718D"/>
<path fill-rule="evenodd" clip-rule="evenodd" d="M49.215 13.724L53.7288 14.5625C53.7288 14.5625 50.9967 15.6665 50.5426 16.0018C49.3827 16.0228 47.3843 15.3031 47.3843 15.3031L49.215 13.724H49.215Z" fill="#60718D"/>
<path fill-rule="evenodd" clip-rule="evenodd" d="M39.0466 8.20265C39.0466 8.20265 41.5491 6.93744 46.7672 6.41235C53.8578 5.46804 64.2195 7.42078 67.8461 10.5021C69.4053 11.8269 71.058 14.2206 71.9472 17.6362C72.7745 20.8143 72.3806 24.8101 72.3393 25.8275C72.122 24.39 72.5898 21.6181 71.5703 18.4286C70.8267 16.1023 69.8739 13.9292 68.5852 12.4393C67.6657 11.3762 66.3798 10.4531 64.5293 9.77174C60.799 8.39823 56.2661 7.40155 51.5056 7.07716C44.9255 6.6288 39.0466 8.20262 39.0466 8.20262L39.0466 8.20265Z" fill="#60718D"/>
<path fill-rule="evenodd" clip-rule="evenodd" d="M43.5333 11.7309C43.5333 11.7309 44.1948 14.7553 47.4749 16.1805C50.7389 17.5987 54.5368 17.643 56.2238 17.6468C53.6611 17.3758 49.5215 16.5917 47.6627 15.8013C46.0101 15.0985 44.7266 14.102 43.5333 11.7309L43.5333 11.7309Z" fill="#60718D"/>
<path fill-rule="evenodd" clip-rule="evenodd" d="M14.227 7.41239C14.227 7.41239 21.4095 6.95651 25.885 7.25013C30.3606 7.54375 34.2913 8.32003 37.753 9.26429C41.2146 10.2086 52.9747 13.6065 55.1005 13.926C54.3676 13.8808 46.3946 12.4344 43.5367 11.6823C41.0553 11.0293 36.4172 9.82504 32.2213 8.87398C28.0253 7.92288 14.227 7.41238 14.227 7.41238L14.227 7.41239Z" fill="#60718D"/>
<path fill-rule="evenodd" clip-rule="evenodd" d="M37.5831 14.8237C37.5384 14.8976 37.2312 17.1242 37.3572 17.9731C37.475 18.7674 38.1225 20.4162 39.3486 20.3759C40.412 20.341 40.5583 18.852 40.5579 18.9221C40.3855 19.4239 40.0137 20.2498 39.3218 20.2076C38.63 20.1655 37.9082 19.4289 37.639 17.968C37.3636 16.4741 37.5831 14.8237 37.5831 14.8237H37.5831Z" fill="#60718D"/>
<path fill-rule="evenodd" clip-rule="evenodd" d="M38.1399 21.4519C38.1399 21.4519 38.4539 21.1087 38.9871 21.1124C39.7661 21.1178 40.3833 21.9442 40.3339 22.6801C40.2356 21.7045 39.4621 21.203 38.9863 21.1703C38.5105 21.1375 38.1399 21.4519 38.1399 21.4519Z" fill="#60718D"/>
<path fill-rule="evenodd" clip-rule="evenodd" d="M41.9093 23.7507C41.9093 23.7507 41.5182 23.8523 41.5077 24.4495C41.4972 25.0466 42.0243 25.9078 42.1324 26.3338C42.1955 26.1173 41.6143 24.852 41.6335 24.4322C41.6528 24.0126 41.7519 23.9218 41.9093 23.7507L41.9093 23.7507Z" fill="#60718D"/>
<path fill-rule="evenodd" clip-rule="evenodd" d="M40.0071 23.3225C40.0071 23.3225 39.8363 22.9608 39.0993 22.9079C38.4061 22.8581 37.6615 23.3766 37.6417 24.2046C37.6197 25.1268 38.2377 25.5941 39.0971 25.6652C39.9565 25.7363 40.8509 24.4494 40.4945 23.1498C40.7112 24.2748 39.9332 25.5482 39.0715 25.4398C38.2097 25.3314 37.872 24.7344 37.8639 24.2033C37.8559 23.6723 38.45 23.0227 39.0399 23.0243C39.6298 23.0259 40.0071 23.3225 40.0071 23.3225L40.0071 23.3225Z" fill="#60718D"/>
<path fill-rule="evenodd" clip-rule="evenodd" d="M32.0119 25.7351C32.0328 25.6863 33.5421 24.1979 34.3108 23.6879C34.2059 23.8905 32.0119 25.7351 32.0119 25.7351Z" fill="#60718D"/>
<path fill-rule="evenodd" clip-rule="evenodd" d="M32.6339 27.6287C32.6339 27.6287 33.2997 26.678 35.2249 26.7269C35.2249 26.7269 35.2348 26.7515 35.2253 26.8949C35.2158 27.0383 33.8312 28.2455 33.4294 28.3603C33.6712 28.1818 35.1334 26.8898 34.9921 26.8881C34.8508 26.8864 33.4347 26.9471 32.6339 27.6287Z" fill="#60718D"/>
<path fill-rule="evenodd" clip-rule="evenodd" d="M37.8604 30.0393C37.8604 30.0393 38.3711 27.9412 39.2596 27.7942C40.2647 27.6278 40.7662 28.6495 40.2266 29.8127C40.5515 28.8225 40.2499 28.1087 39.7707 27.9606C38.6779 27.6227 38.284 29.4801 37.8604 30.0393V30.0393Z" fill="#60718D"/>
<path fill-rule="evenodd" clip-rule="evenodd" d="M31.7447 17.9685C31.7447 17.9685 33.015 19.1047 34.0958 19.8272C35.1766 20.5497 35.7164 21.6055 35.7895 22.0634C35.8626 22.5214 35.658 23.0238 34.9453 23.0204C34.1384 23.0166 31.7311 21.7556 31.3499 21.5087C31.2682 21.4219 34.1674 22.7734 34.8303 22.7482C35.5927 22.7191 35.5045 22.103 35.4392 21.8593C35.3412 21.4934 34.572 20.3807 33.8182 19.9323C32.7908 19.3212 31.7447 17.9685 31.7447 17.9685V17.9685Z" fill="#60718D"/>
<path fill-rule="evenodd" clip-rule="evenodd" d="M38.3596 14.4253C38.3596 14.4253 40.5242 15.0962 42.1368 18.8141C43.0304 20.8745 43.407 24.2571 43.3073 25.1023C43.3035 24.5032 42.8493 21.3671 41.7448 18.8158C40.6402 16.2644 39.5441 15.1116 38.3596 14.4253Z" fill="#60718D"/>
<path fill-rule="evenodd" clip-rule="evenodd" d="M40.5606 15.8916C41.9945 17.2194 42.8819 19.1023 43.2366 21.0073C43.5105 22.478 43.5341 23.81 43.5341 23.81C43.5341 23.81 43.4833 22.2013 42.6983 19.8752C41.9132 17.5491 40.5606 15.8915 40.5606 15.8915V15.8916Z" fill="#60718D"/>
<path fill-rule="evenodd" clip-rule="evenodd" d="M14.8412 19.3192C14.8412 19.3192 24.5954 22.059 25.1193 22.1781C25.5565 22.2774 31.0608 23.7936 31.0608 23.7936L31.0887 24.4647C31.0887 24.4647 24.0219 22.5432 23.7703 22.4593C23.6267 22.4115 21.2975 21.7061 19.0058 20.9324C17.2793 20.3495 15.5741 19.7278 14.8411 19.3192L14.8412 19.3192Z" fill="#60718D"/>
<path fill-rule="evenodd" clip-rule="evenodd" d="M29.4989 22.4595C28.3711 22.3096 23.7186 22.0331 22.627 22.1039C21.3142 22.1891 20.4575 22.0843 19.8395 22.0142C19.2215 21.9441 18.7691 21.6974 18.7732 21.4005C18.7773 21.1035 18.9665 21.0058 19.0298 20.9837C19.0931 20.9618 18.6629 21.0326 18.6595 21.417C18.6514 22.3187 21.1569 22.4293 23.7705 22.4593C26.2908 22.4882 28.8822 22.4766 29.4988 22.4595H29.4989Z" fill="#60718D"/>
<path fill-rule="evenodd" clip-rule="evenodd" d="M36.6864 13.4804C36.6864 13.4804 36.3588 12.7727 34.9759 12.7455C33.913 12.7246 33.0971 13.72 32.5308 14.45C31.7333 15.4779 31.1081 16.9617 30.9011 19.0352C30.6942 21.1088 30.9847 25.1518 30.9847 25.1518C30.9847 25.1518 31.1696 20.881 31.2895 19.422C31.4083 17.9767 32.0053 16.2632 32.868 14.7658C33.4395 13.7741 34.0998 12.9729 34.9959 12.9708C36.0694 12.9684 36.6864 13.4804 36.6864 13.4804V13.4804Z" fill="#60718D"/>
<path fill-rule="evenodd" clip-rule="evenodd" d="M15.0384 19.7633C15.054 20.1884 14.7911 23.9757 12.4301 24.0635C12.8187 24.026 13.768 23.5243 14.2861 22.4622C14.6399 21.7367 14.9587 20.195 15.0384 19.7633H15.0384Z" fill="#60718D"/>
<path fill-rule="evenodd" clip-rule="evenodd" d="M11.9802 14.712H12.202C12.202 14.712 12.1564 15.4584 12.2051 15.7794C12.2539 16.1005 12.4698 16.6509 13.1025 16.6802C13.1004 16.7187 13.1008 16.7887 13.1008 16.7887C12.7557 16.841 12.0016 16.6133 11.9819 15.6115C11.9708 15.0486 11.9802 14.712 11.9802 14.712V14.712Z" fill="#60718D"/>
<path fill-rule="evenodd" clip-rule="evenodd" d="M9.3944 14.9329L9.5654 14.8275C9.71367 15.1571 10.5322 16.1501 10.8541 16.9025C10.9744 17.1836 10.848 17.4232 10.5775 17.5196C10.1859 17.6592 9.31185 17.4886 9.228 17.4607C9.26627 17.3906 9.28146 17.3486 9.28146 17.3486C9.28146 17.3486 10.2172 17.5668 10.5205 17.4065C10.8238 17.2461 10.5192 16.7355 10.5192 16.7355L9.3944 14.9329V14.9329Z" fill="#60718D"/>
<path fill-rule="evenodd" clip-rule="evenodd" d="M11.2507 22.2358L11.4743 22.2353C11.4743 22.2353 11.7001 21.1202 11.4694 21.0047C11.081 20.8103 9.73312 21.6737 9.73312 21.6737L9.78946 21.7309C9.78946 21.7309 11.1172 21.0117 11.3044 21.1148C11.4916 21.218 11.2507 22.2358 11.2507 22.2358V22.2358Z" fill="#60718D"/>
<path fill-rule="evenodd" clip-rule="evenodd" d="M11.3027 17.2344L11.4162 17.1247C11.4162 17.1247 12.1348 17.3007 12.2712 18.4125C12.3597 19.1339 12.2374 19.5896 11.9312 19.886C11.7577 20.054 11.5293 20.21 11.0887 20.2189C10.0011 20.1633 10.3512 18.576 11.2467 18.3038C12.3127 17.9799 11.6442 18.7968 11.6442 18.7968L11.4765 18.8037L11.6022 18.5452C11.6126 18.5239 11.681 18.3604 11.4155 18.417C11.1501 18.4736 10.7148 18.8876 10.6799 19.188C10.6122 19.7709 10.7605 20.0352 11.1211 20.046C12.1994 20.0782 12.1768 19.0589 12.0843 18.3077C12.006 17.6704 11.3027 17.2344 11.3027 17.2344L11.3027 17.2344Z" fill="#60718D"/>
<path fill-rule="evenodd" clip-rule="evenodd" d="M12.7102 14.0889C12.7102 14.0889 14.3656 15.7222 13.9532 19.071C13.5407 22.4198 12.449 23.6974 11.2539 23.6446C9.53834 23.5688 8.22725 21.0533 8.38124 17.7811C8.5352 14.509 9.72453 13.424 10.8955 13.1338C9.80063 13.3698 8.39136 15.2943 8.66105 18.6028C8.93074 21.9113 10.1388 23.2672 11.2264 23.3006C13.0603 23.357 13.6715 20.2588 13.7795 18.5854C13.9528 15.8981 13.0692 14.7345 12.7102 14.0889L12.7102 14.0889Z" fill="#60718D"/>
<path fill-rule="evenodd" clip-rule="evenodd" d="M12.9954 23.2622C14.1781 21.8068 14.5781 20.2087 14.5605 18.3609C14.5448 16.7169 14.4432 14.9913 13.6689 13.5341C12.9151 12.1158 12.0667 11.8409 11.2864 11.8494C8.98202 11.8744 7.93674 15.3993 7.93674 17.7151C7.93674 23.0248 9.83297 23.8252 10.7449 24.2561C10.2358 24.0257 8.14738 23.1077 8.3241 17.5969C8.45047 13.6571 10.3398 12.1548 11.4858 12.239C12.7506 12.3319 13.6778 13.8849 14.0514 15.782C14.2261 16.6691 14.3576 17.5356 14.3927 18.3806C14.4766 20.4018 13.9638 21.7121 12.9954 23.2623L12.9954 23.2622Z" fill="#60718D"/>
<path d="M105.224 24.8428H101.451V13.1027H96V10.1677H110.675V13.1027H105.224V24.8428Z" fill="#2E364A"/>
<path d="M112.671 24.8428V12.4319C112.671 10.9224 113.412 10.1677 114.893 10.1677H122.734C124.187 10.1677 125.2 10.566 125.773 11.3627C126.36 12.1593 126.654 13.3683 126.654 14.9895C126.654 18.3578 125.543 20.0419 123.321 20.0419H122.272V20.1468L126.947 24.8428H122.314L119.002 21.0273C118.946 20.9574 118.834 20.8386 118.667 20.6709C118.499 20.4892 118.373 20.3494 118.289 20.2516C118.205 20.1537 118.108 20.028 117.996 19.8742C117.884 19.7205 117.8 19.5667 117.744 19.413C117.702 19.2593 117.681 19.1055 117.681 18.9518V18.6164C117.681 18.1132 117.856 17.7708 118.205 17.5891C118.555 17.3934 119.1 17.2956 119.841 17.2956H121.077C121.748 17.2956 122.203 17.1279 122.44 16.7925C122.678 16.457 122.797 15.898 122.797 15.1153C122.797 14.3606 122.664 13.8365 122.398 13.543C122.133 13.2495 121.644 13.1027 120.931 13.1027H117.43C117.066 13.1027 116.808 13.1796 116.654 13.3333C116.514 13.4731 116.444 13.7247 116.444 14.088V24.8428H112.671Z" fill="#2E364A"/>
<path d="M133.334 24.8428H129.56V10.1677H133.334V24.8428Z" fill="#2E364A"/>
<path d="M151.511 10.1677V22.6625C151.511 23.2914 151.301 23.8435 150.882 24.3187C150.476 24.7799 149.792 25.0105 148.827 25.0105C147.555 25.0105 146.626 24.5632 146.039 23.6688L140.316 15.0524C140.162 14.8148 140.029 14.696 139.917 14.696C139.75 14.696 139.666 14.8358 139.666 15.1153V24.8428H136.479V12.3061C136.479 11.5374 136.731 10.9644 137.234 10.587C137.751 10.1957 138.422 10 139.247 10C140.49 10 141.392 10.4193 141.951 11.2579L147.716 19.9581C147.73 19.972 147.751 20.014 147.779 20.0839C147.821 20.1398 147.849 20.1817 147.863 20.2096C147.891 20.2236 147.926 20.2446 147.968 20.2725C148.01 20.3005 148.052 20.3145 148.093 20.3145C148.247 20.3145 148.324 20.1957 148.324 19.9581V10.1677H151.511Z" fill="#2E364A"/>
<path d="M158.432 24.8428H154.658V10.1677H158.432V24.8428Z" fill="#2E364A"/>
<path d="M169.649 24.8428H165.875V13.1027H160.424V10.1677H175.1V13.1027H169.649V24.8428Z" fill="#2E364A"/>
<path d="M184.455 17.1908L188.585 10.1677H192.61L186.32 20.566V24.8428H182.568V20.566L176.299 10.1677H180.325L184.455 17.1908Z" fill="#2E364A"/>
<path d="M100.927 50H97.153V37.5891C97.153 36.0797 97.8938 35.3249 99.3753 35.3249H107.174C107.971 35.3249 108.635 35.4437 109.166 35.6813C109.697 35.905 110.102 36.2544 110.382 36.7296C110.661 37.1908 110.857 37.7079 110.969 38.2809C111.08 38.84 111.136 39.5108 111.136 40.2935C111.136 41.9287 110.85 43.1726 110.277 44.0252C109.718 44.8777 108.683 45.304 107.174 45.304H100.927V50ZM100.927 42.369H105.224C105.993 42.369 106.524 42.2152 106.818 41.9078C107.125 41.5863 107.279 41.0482 107.279 40.2935C107.279 39.5528 107.125 39.0287 106.818 38.7212C106.524 38.4137 105.993 38.26 105.224 38.26H101.912C101.549 38.26 101.29 38.3368 101.136 38.4906C100.997 38.6303 100.927 38.8819 100.927 39.2453V42.369Z" fill="#2E364A"/>
<path d="M110.935 50L116.406 36.8763C116.658 36.2614 116.986 35.8211 117.392 35.5556C117.811 35.29 118.447 35.1572 119.299 35.1572C120.026 35.1572 120.613 35.276 121.06 35.5136C121.522 35.7512 121.892 36.2055 122.172 36.8763L127.664 50H123.702L122.381 46.6457H116.197L114.876 50H110.935ZM118.985 39.1405L117.119 43.7946H121.459L119.593 39.1405C119.481 38.833 119.383 38.6792 119.299 38.6792C119.202 38.6792 119.097 38.833 118.985 39.1405Z" fill="#2E364A"/>
<path d="M129.233 50V37.5891C129.233 36.0797 129.973 35.3249 131.455 35.3249H139.295C140.749 35.3249 141.762 35.7233 142.335 36.5199C142.922 37.3166 143.216 38.5255 143.216 40.1467C143.216 43.515 142.105 45.1992 139.882 45.1992H138.834V45.304L143.509 50H138.876L135.564 46.1845C135.508 46.1146 135.396 45.9958 135.228 45.8281C135.061 45.6464 134.935 45.5066 134.851 45.4088C134.767 45.311 134.669 45.1852 134.558 45.0314C134.446 44.8777 134.362 44.724 134.306 44.5702C134.264 44.4165 134.243 44.2628 134.243 44.109V43.7736C134.243 43.2704 134.418 42.928 134.767 42.7463C135.117 42.5507 135.662 42.4528 136.402 42.4528H137.639C138.31 42.4528 138.764 42.2851 139.002 41.9497C139.24 41.6143 139.358 41.0552 139.358 40.2725C139.358 39.5178 139.226 38.9937 138.96 38.7002C138.695 38.4067 138.205 38.26 137.493 38.26H133.992C133.628 38.26 133.37 38.3368 133.216 38.4906C133.076 38.6303 133.006 38.8819 133.006 39.2453V50H129.233Z" fill="#2E364A"/>
<path d="M154.193 50H150.42V38.26H144.969V35.3249H159.644V38.26H154.193V50Z" fill="#2E364A"/>
<path d="M161.693 50V47.065H169.827C170.134 47.065 170.372 47.0021 170.54 46.8763C170.707 46.7365 170.805 46.6108 170.833 46.499C170.861 46.3732 170.875 46.2264 170.875 46.0587C170.875 45.4997 170.498 45.1013 169.743 44.8637L163.999 43.1447C163.09 42.8791 162.448 42.4039 162.07 41.7191C161.707 41.0342 161.525 40.1398 161.525 39.0356C161.525 36.5618 162.657 35.3249 164.921 35.3249H173.978V38.26H166.389C165.704 38.26 165.362 38.5814 165.362 39.2243C165.362 39.8113 165.753 40.2236 166.536 40.4612L171.693 41.9706C172.797 42.2921 173.58 42.7603 174.041 43.3753C174.502 43.9902 174.733 44.8987 174.733 46.1006C174.733 48.7002 173.615 50 171.378 50H161.693Z" fill="#2E364A"/>
</svg>
