<svg width="14" height="16" viewBox="0 0 14 16" fill="none" xmlns="http://www.w3.org/2000/svg">
<path fill-rule="evenodd" clip-rule="evenodd" d="M0 1.6C0 0.716345 0.716341 0 1.6 0H10.3542L13.8667 3.51242V14.4C13.8667 15.2836 13.1503 16 12.2667 16H1.6C0.716341 16 0 15.2836 0 14.4V1.6ZM2.13333 7.77908V6.4H1.06667V8.22092L1.91242 9.06667L1.06667 9.91242V11.7333H2.13333V10.3543L2.66667 9.82092L3.2 10.3543V11.7333H4.26667V9.91242L3.42092 9.06667L4.26667 8.22092V6.4H3.2V7.77908L2.66667 8.31242L2.13333 7.77908ZM5.33333 6.4H6.4V10.6667H8.53333V11.7333H5.33333V6.4ZM12.8 6.4H9.6V9.6H11.7333V10.6667H9.6V11.7333H12.8V8.53333H10.6667V7.46667H12.8V6.4Z" fill="#5C6D89"/>
</svg>
