<svg xmlns="http://www.w3.org/2000/svg" width="14" height="16" fill="none"><div xmlns="" id="in-page-channel-node-id" data-channel-name="in_page_channel_aU58k6"/><path fill-rule="evenodd" clip-rule="evenodd" d="M0 1.6A1.6 1.6 0 0 1 1.6 0h8.754l3.513 3.512V14.4a1.6 1.6 0 0 1-1.6 1.6H1.6A1.6 1.6 0 0 1 0 14.4V1.6Zm2.133 6.18V6.4H1.067v1.82l.845.847-.845.845v1.821h1.066v-1.379l.534-.533.533.533v1.38h1.067V9.911l-.846-.845.846-.846V6.4H3.2v1.38l-.533.532-.534-.533Zm3.2-1.38H6.4v4.267h2.133v1.066h-3.2V6.4Zm7.467 0H9.6v3.2h2.133v1.067H9.6v1.066h3.2v-3.2h-2.133V7.467H12.8V6.4Z" fill="#5C6D89"/></svg>